<?xml version="1.0" encoding="UTF-8"?>
<svg id="_レイヤー_2" data-name="レイヤー 2" xmlns="http://www.w3.org/2000/svg" viewBox="0 0 264.49 156.88">
  <defs>
    <style>
      .cls-1 {
        fill: none;
      }

      .cls-2 {
        fill: #fff;
      }
    </style>
  </defs>
  <g id="_施工管理募集" data-name="施工管理募集">
    <g>
      <g>
        <path class="cls-2" d="M193.43,111.02c-1.75,1.73-4.15,2.81-6.81,2.81s-5.06-1.07-6.81-2.81c-4.65,2.19-7.87,6.91-7.87,12.39v33.47h29.35v-33.47c0-5.48-3.22-10.2-7.87-12.39Z"/>
        <path class="cls-2" d="M186.62,111.76c2.66,0,5.06-1.07,6.81-2.81,1.76-1.75,2.86-4.18,2.86-6.86,0-5.34-4.33-9.67-9.67-9.67s-9.67,4.33-9.67,9.67c0,2.68,1.09,5.11,2.86,6.86,1.75,1.73,4.15,2.81,6.81,2.81Z"/>
      </g>
      <path class="cls-1" d="M176.06,100.99c.03-.31.08-.62.14-.92-.06.3-.11.61-.14.92Z"/>
      <path class="cls-1" d="M197.04,100.08c.06.3.11.61.14.92-.03-.31-.08-.62-.14-.92Z"/>
      <path class="cls-1" d="M170.48,125.61c0-.2.01-.41.02-.62,0,.2-.02.4-.02.6v.02Z"/>
      <path class="cls-1" d="M175.99,102.14s0,0,0,.01c0-.34.02-.67.05-1-.03.33-.05.66-.05.99Z"/>
      <path class="cls-1" d="M197.25,102.14c0-.34-.02-.67-.05-.99.03.33.05.67.05,1.01,0,0,0,0,0-.01Z"/>
      <path class="cls-2" d="M204.47,87.66c2.66,0,5.06-1.07,6.81-2.81,1.76-1.75,2.86-4.18,2.86-6.86,0-5.34-4.33-9.67-9.67-9.67s-9.67,4.33-9.67,9.67c0,2.68,1.09,5.11,2.86,6.86,1.75,1.73,4.15,2.81,6.81,2.81Z"/>
      <path class="cls-2" d="M170.48,125.61v-.02c0-.2.01-.4.02-.6,0-.17,0-.34.02-.52,0,0,0,0,0-.01.41-5.75,3.74-12.6,8.43-14.95-.42-.43-.79-.91-1.13-1.4h0c-1.15-1.7-1.83-3.74-1.83-5.95,0,0,0,0,0-.01s0,0,0-.01c0-.33.02-.66.05-.99,0-.05.01-.1.02-.15.03-.31.08-.62.14-.92,0-.04.02-.09.03-.13.66-3.16,2.72-5.8,5.51-7.25-1.39-2.51-3.55-4.54-6.16-5.77-1.75,1.73-4.15,2.81-6.81,2.81s-5.06-1.07-6.81-2.81c-4.65,2.19-7.87,6.91-7.87,12.39v33.47h16.38v-7.17s0,0,0,0Z"/>
      <path class="cls-2" d="M168.77,87.66c2.66,0,5.06-1.07,6.81-2.81,1.76-1.75,2.86-4.18,2.86-6.86,0-5.34-4.33-9.67-9.67-9.67s-9.67,4.33-9.67,9.67c0,2.68,1.09,5.11,2.86,6.86,1.75,1.73,4.15,2.81,6.81,2.81Z"/>
      <path class="cls-2" d="M197.02,99.95s.02.09.03.13c0-.04-.02-.09-.03-.13Z"/>
      <path class="cls-2" d="M176.23,99.94s-.02.09-.03.13c0-.04.02-.09.03-.13Z"/>
      <path class="cls-2" d="M197.25,102.16s0,0,0-.01c0,1.88-.5,3.65-1.36,5.18.86-1.53,1.36-3.29,1.36-5.17Z"/>
      <path class="cls-2" d="M195.89,107.33c-.15.26-.3.52-.47.77.17-.25.32-.51.47-.77Z"/>
      <polygon class="cls-2" points="170.48 125.61 170.48 125.61 170.48 132.78 170.48 132.78 170.48 125.61"/>
      <path class="cls-2" d="M175.99,102.16c0,2.21.68,4.25,1.83,5.95-1.16-1.7-1.83-3.75-1.83-5.96,0,0,0,0,0,.01Z"/>
      <path class="cls-2" d="M177.82,108.11h0s0,0,0,0Z"/>
      <path class="cls-2" d="M213.34,132.78v-9.37c0-4.62,2.3-8.7,5.81-11.18v-6.3c-.51-1.18-.8-2.48-.8-3.84s.27-2.61.76-3.77c-.36-5.05-3.46-9.35-7.83-11.4-1.75,1.73-4.15,2.81-6.81,2.81s-5.06-1.07-6.81-2.81c-2.61,1.23-4.77,3.26-6.16,5.77,2.79,1.45,4.85,4.09,5.51,7.25,0,.04.02.09.03.13.06.3.11.61.14.92,0,.05.01.1.02.15.03.33.05.66.05.99,0,0,0,0,0,.01,0,0,0,0,0,.01,0,1.88-.5,3.64-1.36,5.17-.15.26-.3.52-.47.77,0,0,0,0,0,0-.19.28-.4.55-.61.81,0,0,0,0,0,0-.16.2-.33.4-.51.58,4.69,2.34,8.01,9.17,8.43,14.92,0,.01,0,.03,0,.04,0,.11,0,.22.01.33.01.26.03.52.03.79v7.2h10.58Z"/>
      <path class="cls-1" d="M217.45,100.99c.03-.31.08-.62.14-.92-.06.3-.11.61-.14.92Z"/>
      <path class="cls-1" d="M211.87,125.61c0-.2.01-.41.02-.62,0,.2-.02.4-.02.6v.02Z"/>
      <path class="cls-1" d="M217.38,102.14s0,0,0,.01c0-.34.02-.67.05-1-.03.33-.05.66-.05.99Z"/>
      <g>
        <g>
          <path class="cls-2" d="M235.54,111.02c-1.75,1.73-4.15,2.81-6.81,2.81s-5.06-1.07-6.81-2.81c-4.65,2.19-7.87,6.91-7.87,12.39v33.47h29.35v-33.47c0-5.48-3.22-10.2-7.87-12.39Z"/>
          <path class="cls-2" d="M228.73,111.76c2.66,0,5.06-1.07,6.81-2.81,1.76-1.75,2.86-4.18,2.86-6.86,0-5.34-4.33-9.67-9.67-9.67s-9.67,4.33-9.67,9.67c0,2.68,1.09,5.11,2.86,6.86,1.75,1.73,4.15,2.81,6.81,2.81Z"/>
        </g>
        <path class="cls-1" d="M239.16,100.08c.06.3.11.61.14.92-.03-.31-.08-.62-.14-.92Z"/>
        <path class="cls-1" d="M212.59,125.61c0-.2.01-.41.02-.62,0,.2-.02.4-.02.6v.02Z"/>
        <path class="cls-1" d="M239.37,102.14c0-.34-.02-.67-.05-.99.03.33.05.67.05,1.01,0,0,0,0,0-.01Z"/>
        <path class="cls-2" d="M253.39,86.92c-1.75,1.73-4.15,2.81-6.81,2.81s-5.06-1.07-6.81-2.81c-2.61,1.23-4.77,3.26-6.16,5.77,2.79,1.45,4.85,4.09,5.51,7.25,0,.04.02.09.03.13.06.3.11.61.14.92,0,.05.01.1.02.15.03.33.05.66.05.99,0,0,0,0,0,.01,0,0,0,0,0,.01,0,1.88-.5,3.64-1.36,5.17-.15.26-.3.52-.47.77,0,0,0,0,0,0-.19.28-.4.55-.61.81,0,0,0,0,0,0-.16.2-.33.4-.51.58,4.69,2.34,8.01,9.17,8.43,14.92,0,.01,0,.03,0,.04,0,.11,0,.22.01.33.01.26.03.52.03.79v7.2h16.38v-33.47c0-5.48-3.22-10.2-7.87-12.39Z"/>
        <path class="cls-2" d="M246.58,87.66c2.66,0,5.06-1.07,6.81-2.81,1.76-1.75,2.86-4.18,2.86-6.86,0-5.34-4.33-9.67-9.67-9.67s-9.67,4.33-9.67,9.67c0,2.68,1.09,5.11,2.86,6.86,1.75,1.73,4.15,2.81,6.81,2.81Z"/>
        <path class="cls-2" d="M239.13,99.95s.02.09.03.13c0-.04-.02-.09-.03-.13Z"/>
        <path class="cls-2" d="M238.01,107.33c-.15.26-.3.52-.47.77.17-.25.32-.51.47-.77Z"/>
        <path class="cls-2" d="M219.94,108.11h0s0,0,0,0Z"/>
      </g>
    </g>
    <g>
      <path class="cls-2" d="M223.63,63.25c0,2.13-2.84,5.71-4.54,5.71,1.7,0,4.54,3.57,4.54,5.71,0-2.13,2.84-5.71,4.54-5.71-1.7,0-4.54-3.57-4.54-5.71Z"/>
      <path class="cls-2" d="M229,79.66c0,1.5-1.99,4.01-3.19,4.01,1.19,0,3.19,2.51,3.19,4.01,0-1.5,1.99-4.01,3.19-4.01-1.19,0-3.19-2.51-3.19-4.01Z"/>
    </g>
    <path class="cls-2" d="M261.26,73.48c0-1.52-2.02-4.06-3.22-4.06,1.21,0,3.22-2.54,3.22-4.06,0,1.52,2.02,4.06,3.22,4.06-1.21,0-3.22,2.54-3.22,4.06Z"/>
    <path class="cls-2" d="M185.44,86.1c0-2.14-2.85-5.72-4.55-5.72,1.7,0,4.55-3.58,4.55-5.72,0,2.14,2.85,5.72,4.55,5.72-1.7,0-4.55,3.58-4.55,5.72Z"/>
    <g>
      <path class="cls-2" d="M147.37,86.44c0-2.17-2.88-5.79-4.6-5.79,1.72,0,4.6-3.62,4.6-5.79,0,2.17,2.88,5.79,4.6,5.79-1.72,0-4.6,3.62-4.6,5.79Z"/>
      <path class="cls-2" d="M152.82,69.8c0-1.52-2.02-4.06-3.23-4.06,1.21,0,3.23-2.54,3.23-4.06,0,1.52,2.02,4.06,3.23,4.06-1.21,0-3.23,2.54-3.23,4.06Z"/>
    </g>
    <g>
      <polygon class="cls-2" points="80.16 0 27 156.88 133.32 156.88 80.16 0"/>
      <polygon class="cls-2" points="40.59 37.09 0 156.88 81.18 156.88 40.59 37.09"/>
      <polygon class="cls-2" points="119.73 37.09 79.14 156.88 160.32 156.88 119.73 37.09"/>
    </g>
  </g>
</svg>