<?xml version="1.0" encoding="UTF-8"?>
<svg id="_レイヤー_2" data-name="レイヤー 2" xmlns="http://www.w3.org/2000/svg" xmlns:xlink="http://www.w3.org/1999/xlink" viewBox="0 0 151.25 167.32">
  <defs>
    <style>
      .cls-1 {
        mask: url(#mask);
      }

      .cls-2 {
        filter: url(#luminosity-noclip);
      }

      .cls-3 {
        fill: #fff;
      }

      .cls-4 {
        fill: url(#_名称未設定グラデーション_20);
        mix-blend-mode: screen;
      }

      .cls-5 {
        fill: url(#_名称未設定グラデーション_19);
      }
    </style>
    <filter id="luminosity-noclip" x="0" y="0" width="151.25" height="167.32" color-interpolation-filters="sRGB" filterUnits="userSpaceOnUse">
      <feFlood flood-color="#fff" result="bg"/>
      <feBlend in="SourceGraphic" in2="bg"/>
    </filter>
    <linearGradient id="_名称未設定グラデーション_19" data-name="名称未設定グラデーション 19" x1="7.06" y1="82.11" x2="146.5" y2="82.11" gradientUnits="userSpaceOnUse">
      <stop offset="0" stop-color="#fff"/>
      <stop offset="0" stop-color="#f5f5f5"/>
      <stop offset="0" stop-color="#c7c7c7"/>
      <stop offset="0" stop-color="#9c9c9c"/>
      <stop offset="0" stop-color="#777"/>
      <stop offset="0" stop-color="#565656"/>
      <stop offset="0" stop-color="#3b3b3b"/>
      <stop offset="0" stop-color="#252525"/>
      <stop offset="0" stop-color="#141414"/>
      <stop offset=".01" stop-color="#080808"/>
      <stop offset=".01" stop-color="#010101"/>
      <stop offset=".02" stop-color="#000"/>
      <stop offset=".99" stop-color="#000"/>
      <stop offset=".99" stop-color="#010101"/>
      <stop offset=".99" stop-color="#080808"/>
      <stop offset="1" stop-color="#141414"/>
      <stop offset="1" stop-color="#252525"/>
      <stop offset="1" stop-color="#3b3b3b"/>
      <stop offset="1" stop-color="#565656"/>
      <stop offset="1" stop-color="#777"/>
      <stop offset="1" stop-color="#9c9c9c"/>
      <stop offset="1" stop-color="#c7c7c7"/>
      <stop offset="1" stop-color="#f5f5f5"/>
      <stop offset="1" stop-color="#fff"/>
    </linearGradient>
    <linearGradient id="_名称未設定グラデーション_20" data-name="名称未設定グラデーション 20" x1="76.78" y1="3.67" x2="76.78" y2="160.55" gradientUnits="userSpaceOnUse">
      <stop offset="0" stop-color="#fff"/>
      <stop offset="0" stop-color="#f5f5f5"/>
      <stop offset="0" stop-color="#c7c7c7"/>
      <stop offset="0" stop-color="#9c9c9c"/>
      <stop offset="0" stop-color="#777"/>
      <stop offset="0" stop-color="#565656"/>
      <stop offset="0" stop-color="#3b3b3b"/>
      <stop offset="0" stop-color="#252525"/>
      <stop offset="0" stop-color="#141414"/>
      <stop offset="0" stop-color="#080808"/>
      <stop offset=".01" stop-color="#010101"/>
      <stop offset=".02" stop-color="#000"/>
      <stop offset=".98" stop-color="#000"/>
      <stop offset=".99" stop-color="#010101"/>
      <stop offset=".99" stop-color="#080808"/>
      <stop offset=".99" stop-color="#141414"/>
      <stop offset="1" stop-color="#252525"/>
      <stop offset="1" stop-color="#3b3b3b"/>
      <stop offset="1" stop-color="#565656"/>
      <stop offset="1" stop-color="#777"/>
      <stop offset="1" stop-color="#9c9c9c"/>
      <stop offset="1" stop-color="#c7c7c7"/>
      <stop offset="1" stop-color="#f5f5f5"/>
      <stop offset="1" stop-color="#fff"/>
    </linearGradient>
    <mask id="mask" x="0" y="0" width="151.25" height="167.32" maskUnits="userSpaceOnUse">
      <g class="cls-2">
        <g>
          <rect class="cls-3" x="0" width="151.25" height="167.32"/>
          <rect class="cls-5" x="7.06" y="4.07" width="139.44" height="156.09"/>
          <rect class="cls-4" x="7.41" y="3.67" width="138.74" height="156.87"/>
        </g>
      </g>
    </mask>
  </defs>
  <g id="_施工管理募集" data-name="施工管理募集">
    <g>
      <path class="cls-3" d="M143.5,36.94v120.6H10.06V36.94h133.44M146.5,33.94H7.06v126.6h139.44V33.94h0Z"/>
      <rect class="cls-3" x="7.06" y="3.67" width="139.44" height="30.27"/>
      <rect class="cls-3" x="20.83" y="46.8" width="18.83" height="18.83"/>
      <rect class="cls-3" x="44.1" y="46.8" width="18.83" height="18.83"/>
      <rect class="cls-3" x="67.37" y="46.8" width="18.83" height="18.83"/>
      <rect class="cls-3" x="20.83" y="74.16" width="18.83" height="18.83"/>
      <rect class="cls-3" x="44.1" y="74.16" width="18.83" height="18.83"/>
      <rect class="cls-3" x="67.37" y="74.16" width="18.83" height="18.83"/>
      <rect class="cls-3" x="20.83" y="101.51" width="18.83" height="18.83"/>
      <rect class="cls-3" x="44.1" y="101.51" width="18.83" height="18.83"/>
      <rect class="cls-3" x="67.37" y="101.51" width="18.83" height="18.83"/>
      <rect class="cls-3" x="20.83" y="128.86" width="18.83" height="18.83"/>
      <rect class="cls-3" x="44.1" y="128.86" width="18.83" height="18.83"/>
      <rect class="cls-3" x="67.37" y="128.86" width="18.83" height="18.83"/>
      <path class="cls-3" d="M113.9,128.86v18.83h18.83v-18.83h-18.83ZM122.18,144.19l-1.5-.11-2.52-6.33,1.55-.62,1.88,4.73,5.45-9.5,1.44.83-6.3,11Z"/>
      <path class="cls-3" d="M90.63,128.86v18.83h18.83v-18.83h-18.83ZM98.91,144.19l-1.5-.11-2.52-6.33,1.55-.62,1.88,4.73,5.44-9.5,1.45.83-6.3,11Z"/>
      <path class="cls-3" d="M113.9,101.51v18.83h18.83v-18.83h-18.83ZM122.18,116.84l-1.5-.11-2.52-6.33,1.55-.62,1.88,4.73,5.45-9.5,1.44.83-6.3,11Z"/>
      <path class="cls-3" d="M90.63,101.51v18.83h18.83v-18.83h-18.83ZM98.91,116.84l-1.5-.11-2.52-6.33,1.55-.62,1.88,4.73,5.44-9.5,1.45.83-6.3,11Z"/>
      <path class="cls-3" d="M113.9,74.16v18.83h18.83v-18.83h-18.83ZM122.18,89.48l-1.5-.11-2.52-6.33,1.55-.62,1.88,4.73,5.45-9.5,1.44.83-6.3,11Z"/>
      <path class="cls-3" d="M90.63,74.16v18.83h18.83v-18.83h-18.83ZM98.91,89.48l-1.5-.11-2.52-6.33,1.55-.62,1.88,4.73,5.44-9.5,1.45.83-6.3,11Z"/>
      <path class="cls-3" d="M113.9,46.8v18.83h18.83v-18.83h-18.83ZM122.18,62.13l-1.5-.11-2.52-6.33,1.55-.62,1.88,4.73,5.45-9.5,1.44.83-6.3,11Z"/>
      <path class="cls-3" d="M90.63,46.8v18.83h18.83v-18.83h-18.83ZM98.91,62.13l-1.5-.11-2.52-6.33,1.55-.62,1.88,4.73,5.44-9.5,1.45.83-6.3,11Z"/>
    </g>
    <g id="_生成オブジェクト" data-name="生成オブジェクト">
      <g id="_元のアート" data-name="元のアート">
        <g>
          <path class="cls-3" d="M143.5,36.94v120.6H10.06V36.94h133.44M146.5,33.94H7.06v126.6h139.44V33.94h0Z"/>
          <rect class="cls-3" x="7.06" y="3.67" width="139.44" height="30.27"/>
          <rect class="cls-3" x="20.83" y="46.8" width="18.83" height="18.83"/>
          <rect class="cls-3" x="44.1" y="46.8" width="18.83" height="18.83"/>
          <rect class="cls-3" x="67.37" y="46.8" width="18.83" height="18.83"/>
          <rect class="cls-3" x="20.83" y="74.16" width="18.83" height="18.83"/>
          <rect class="cls-3" x="44.1" y="74.16" width="18.83" height="18.83"/>
          <rect class="cls-3" x="67.37" y="74.16" width="18.83" height="18.83"/>
          <rect class="cls-3" x="20.83" y="101.51" width="18.83" height="18.83"/>
          <rect class="cls-3" x="44.1" y="101.51" width="18.83" height="18.83"/>
          <rect class="cls-3" x="67.37" y="101.51" width="18.83" height="18.83"/>
          <rect class="cls-3" x="20.83" y="128.86" width="18.83" height="18.83"/>
          <rect class="cls-3" x="44.1" y="128.86" width="18.83" height="18.83"/>
          <rect class="cls-3" x="67.37" y="128.86" width="18.83" height="18.83"/>
          <path class="cls-3" d="M113.9,128.86v18.83h18.83v-18.83h-18.83ZM122.17,144.19l-1.5-.11-2.52-6.33,1.55-.62,1.88,4.73,5.45-9.5,1.44.83-6.3,11Z"/>
          <path class="cls-3" d="M90.63,128.86v18.83h18.83v-18.83h-18.83ZM98.91,144.19l-1.5-.11-2.52-6.33,1.55-.62,1.88,4.73,5.44-9.5,1.45.83-6.3,11Z"/>
          <path class="cls-3" d="M113.9,101.51v18.83h18.83v-18.83h-18.83ZM122.17,116.84l-1.5-.11-2.52-6.33,1.55-.62,1.88,4.73,5.45-9.5,1.44.83-6.3,11Z"/>
          <path class="cls-3" d="M90.63,101.51v18.83h18.83v-18.83h-18.83ZM98.91,116.84l-1.5-.11-2.52-6.33,1.55-.62,1.88,4.73,5.44-9.5,1.45.83-6.3,11Z"/>
          <path class="cls-3" d="M113.9,74.16v18.83h18.83v-18.83h-18.83ZM122.17,89.48l-1.5-.11-2.52-6.33,1.55-.62,1.88,4.73,5.45-9.5,1.44.83-6.3,11Z"/>
          <path class="cls-3" d="M90.63,74.16v18.83h18.83v-18.83h-18.83ZM98.91,89.48l-1.5-.11-2.52-6.33,1.55-.62,1.88,4.73,5.44-9.5,1.45.83-6.3,11Z"/>
          <path class="cls-3" d="M113.9,46.8v18.83h18.83v-18.83h-18.83ZM122.17,62.13l-1.5-.11-2.52-6.33,1.55-.62,1.88,4.73,5.45-9.5,1.44.83-6.3,11Z"/>
          <path class="cls-3" d="M90.63,46.8v18.83h18.83v-18.83h-18.83ZM98.91,62.13l-1.5-.11-2.52-6.33,1.55-.62,1.88,4.73,5.44-9.5,1.45.83-6.3,11Z"/>
        </g>
      </g>
      <g class="cls-1">
        <g id="_拡張されたアート" data-name="拡張されたアート">
          <path class="cls-3" d="M151.25,0v167.32H0V0h151.25ZM10.29,158.17h134.59V6.54H10.29v151.64Z"/>
        </g>
      </g>
    </g>
  </g>
</svg>