<?xml version="1.0" encoding="UTF-8"?>
<svg id="_レイヤー_2" data-name="レイヤー 2" xmlns="http://www.w3.org/2000/svg" viewBox="0 0 238.05 140.19">
  <defs>
    <style>
      .cls-1 {
        fill: #fff;
      }
    </style>
  </defs>
  <g id="_施工管理募集" data-name="施工管理募集">
    <g>
      <g>
        <path class="cls-1" d="M111.5,33.74c-1.78,1.77-4.24,2.87-6.96,2.87s-5.17-1.09-6.95-2.87c-4.75,2.24-8.04,7.06-8.04,12.66v34.19h29.98v-34.19c0-5.6-3.29-10.42-8.04-12.66Z"/>
        <path class="cls-1" d="M104.55,34.49c2.71,0,5.17-1.09,6.96-2.87,1.8-1.79,2.92-4.27,2.92-7.01,0-5.45-4.42-9.87-9.87-9.87s-9.87,4.42-9.87,9.87c0,2.74,1.12,5.22,2.92,7.01,1.78,1.77,4.24,2.87,6.95,2.87Z"/>
      </g>
      <g>
        <path class="cls-1" d="M77.96,100.01c-11.09,0-20.09,8.99-20.09,20.09s8.99,20.09,20.09,20.09,20.09-8.99,20.09-20.09-8.99-20.09-20.09-20.09ZM77.96,130.14c-5.55,0-10.04-4.5-10.04-10.04s4.5-10.04,10.04-10.04,10.04,4.5,10.04,10.04-4.5,10.04-10.04,10.04Z"/>
        <path class="cls-1" d="M186.57,100.01c-11.1,0-20.09,8.99-20.09,20.09s8.99,20.09,20.09,20.09,20.09-8.99,20.09-20.09-8.99-20.09-20.09-20.09ZM186.57,130.14c-5.55,0-10.04-4.5-10.04-10.04s4.5-10.04,10.04-10.04,10.04,4.5,10.04,10.04-4.5,10.04-10.04,10.04Z"/>
        <path class="cls-1" d="M237.36,95.5l-10.72-39.53c-.83-3.06-2.65-5.64-5.07-7.44-1.15-.86-1.96-2.08-2.16-3.5-1.34-9.43-2.83-18.87-4.8-28.3C212.62,7.49,204.68,0,196.9,0h-114.89c-7.78,0-15.71,7.49-17.71,16.73-2.05,9.8-4.09,19.6-6.14,29.39-.44,2.09-2.12,3.68-4.23,4.02C28.27,54.25,0,69.84,0,94.71v18.65c0,4.27,3.46,7.74,7.74,7.74h46.1c-.02-.36-.05-.71-.05-1.07,0-13.29,10.78-24.07,24.07-24.07s24.07,10.78,24.07,24.07c0,.36-.04.71-.05,1.07h60.73c-.02-.36-.05-.71-.05-1.07,0-13.29,10.78-24.07,24.07-24.07s24.07,10.78,24.07,24.07c0,.36-.04.71-.05,1.07h5.64c9.72,0,17.98-6.29,20.91-15.02,1.15-3.41,1.13-7.11.19-10.58ZM134.95,18.01v22.47c-.28,4.05-4.08,7.33-8.5,7.31l-50.97-.18c-3.28-.01-5.59-2.73-4.85-5.7l6.05-24.12c1.07-3.85,4.38-7.33,8.49-7.31l42.28.15c4.42.02,7.78,3.32,7.51,7.37ZM199.42,47.79h-48.61c-4.34,0-7.78-3.34-7.68-7.47l.55-22.88c.1-4.13,3.7-7.48,8.03-7.48h41.53c4.03,0,6.97,3.55,7.68,7.47l3.77,24.58c.46,3.02-2.05,5.78-5.28,5.78Z"/>
      </g>
    </g>
  </g>
</svg>