<?xml version="1.0" encoding="UTF-8"?>
<svg id="_レイヤー_2" data-name="レイヤー 2" xmlns="http://www.w3.org/2000/svg" viewBox="0 0 248.11 156.55">
  <defs>
    <style>
      .cls-1 {
        fill: none;
      }

      .cls-2 {
        fill: #fff;
      }
    </style>
  </defs>
  <g id="_施工管理募集" data-name="施工管理募集">
    <g>
      <g>
        <path class="cls-2" d="M203.78,101.52c-2.1,2.08-4.98,3.37-8.17,3.37s-6.07-1.29-8.17-3.37c-5.58,2.63-9.44,8.3-9.44,14.87v40.17h35.22v-40.17c0-6.57-3.86-12.24-9.44-14.87Z"/>
        <path class="cls-2" d="M195.61,102.4c3.19,0,6.07-1.29,8.17-3.37,2.12-2.1,3.43-5.01,3.43-8.23,0-6.41-5.19-11.6-11.6-11.6s-11.6,5.19-11.6,11.6c0,3.22,1.31,6.13,3.43,8.23,2.1,2.08,4.98,3.37,8.17,3.37Z"/>
      </g>
      <g>
        <path class="cls-1" d="M182.93,89.48c.04-.37.1-.74.17-1.1-.07.36-.13.73-.17,1.1Z"/>
        <path class="cls-1" d="M208.12,88.39c.07.36.13.73.17,1.1-.04-.37-.1-.74-.17-1.1Z"/>
        <path class="cls-1" d="M176.24,119.03c0-.25.02-.5.03-.75,0,.24-.03.48-.03.72v.03Z"/>
        <path class="cls-1" d="M182.85,90.86s0,.01,0,.02c0-.41.02-.81.06-1.21-.04.39-.06.79-.06,1.19Z"/>
        <path class="cls-1" d="M208.37,90.86c0-.4-.03-.8-.06-1.19.04.4.06.8.06,1.21,0,0,0-.01,0-.02Z"/>
        <path class="cls-2" d="M225.2,72.6c-2.1,2.08-4.98,3.37-8.17,3.37s-6.07-1.29-8.17-3.37c-3.13,1.48-5.73,3.91-7.4,6.93,3.35,1.73,5.82,4.91,6.62,8.7.01.05.02.1.03.16.07.36.13.73.17,1.1,0,.06.01.12.02.18.04.39.06.79.06,1.19,0,0,0,.01,0,.02,0,0,0,.01,0,.02,0,2.26-.6,4.37-1.63,6.21-.18.32-.36.63-.57.92,0,0,0,0,0,.01-.23.34-.47.66-.73.97,0,0,0,0,0,0-.2.24-.4.48-.61.7,5.62,2.81,9.62,11.01,10.11,17.9,0,.02,0,.04,0,.05,0,.13,0,.26.01.39.02.31.03.63.03.95v8.64h19.66v-40.17c0-6.57-3.86-12.24-9.44-14.87Z"/>
        <path class="cls-2" d="M217.03,73.49c3.19,0,6.07-1.29,8.17-3.37,2.12-2.1,3.43-5.01,3.43-8.23,0-6.41-5.19-11.6-11.6-11.6s-11.6,5.19-11.6,11.6c0,3.22,1.31,6.13,3.43,8.23,2.1,2.08,4.98,3.37,8.17,3.37Z"/>
        <path class="cls-2" d="M176.24,119.03v-.03c0-.24.02-.48.03-.72,0-.21,0-.41.02-.62,0,0,0,0,0-.01.49-6.9,4.48-15.12,10.12-17.94-.5-.52-.95-1.09-1.35-1.68h0c-1.38-2.04-2.2-4.49-2.2-7.14,0,0,0-.01,0-.02s0-.01,0-.02c0-.4.03-.8.06-1.19,0-.06.01-.12.02-.19.04-.37.1-.74.17-1.1.01-.05.02-.1.03-.16.8-3.79,3.27-6.96,6.62-8.7-1.67-3.02-4.26-5.45-7.4-6.93-2.1,2.08-4.98,3.37-8.17,3.37s-6.07-1.29-8.17-3.37c-5.58,2.63-9.44,8.3-9.44,14.87v40.17h19.66v-8.6s0,0,0,0Z"/>
        <path class="cls-2" d="M174.19,73.49c3.19,0,6.07-1.29,8.17-3.37,2.12-2.1,3.43-5.01,3.43-8.23,0-6.41-5.19-11.6-11.6-11.6s-11.6,5.19-11.6,11.6c0,3.22,1.31,6.13,3.43,8.23,2.1,2.08,4.98,3.37,8.17,3.37Z"/>
        <path class="cls-2" d="M208.08,88.23c.01.05.02.1.03.16-.01-.05-.02-.1-.03-.16Z"/>
        <path class="cls-2" d="M183.14,88.23c-.01.05-.02.1-.03.16.01-.05.02-.1.03-.16Z"/>
        <path class="cls-2" d="M208.37,90.89s0-.01,0-.02c0,2.26-.6,4.38-1.63,6.22,1.03-1.84,1.63-3.95,1.63-6.21Z"/>
        <path class="cls-2" d="M206.74,97.1c-.18.32-.36.62-.57.92.2-.3.39-.61.57-.92Z"/>
        <polygon class="cls-2" points="176.24 119.03 176.24 119.03 176.24 127.64 176.24 127.64 176.24 119.03"/>
        <path class="cls-2" d="M182.85,90.89c0,2.65.82,5.1,2.2,7.13-1.39-2.04-2.2-4.5-2.2-7.15,0,0,0,.01,0,.02Z"/>
        <path class="cls-2" d="M185.05,98.03h0s0,0,0,0Z"/>
      </g>
    </g>
    <g>
      <g>
        <path class="cls-2" d="M75.22,54.42L120.85,8.79c5.71-5.71,19.33-11.79,23.98-7.14h0c4.65,4.65-1.43,18.27-7.14,23.98l-45.63,45.63c-5.71,5.71-24.79,17.25-29.44,12.6h0c-4.65-4.65,6.9-23.73,12.6-29.44Z"/>
        <g>
          <polygon class="cls-2" points="105.98 43.22 43.01 22.87 51.71 13.99 114 18.39 105.98 43.22"/>
          <polygon class="cls-2" points="103.26 40.5 123.61 103.47 132.49 94.77 128.09 32.48 103.26 40.5"/>
        </g>
        <polyline class="cls-2" points="66.32 113.65 70.02 110.03 68.19 84.11 62.33 78.25 36.41 76.42 32.79 80.12"/>
      </g>
      <g>
        <rect class="cls-2" x="17.11" y="87.25" width="1.87" height="49.17" transform="translate(84.36 20) rotate(45)"/>
        <rect class="cls-2" x="24.26" y="94.4" width="1.87" height="49.17" transform="translate(91.51 17.03) rotate(45)"/>
        <rect class="cls-2" x="31.41" y="101.54" width="1.87" height="49.17" transform="translate(98.66 14.07) rotate(45)"/>
      </g>
    </g>
    <g>
      <path class="cls-2" d="M148.48,59.78c0,3.06-4.08,8.19-6.51,8.19,2.44,0,6.51,5.13,6.51,8.19,0-3.06,4.08-8.19,6.51-8.19-2.44,0-6.51-5.13-6.51-8.19Z"/>
      <path class="cls-2" d="M157.75,41.11c0,2.15-2.86,5.75-4.57,5.75,1.71,0,4.57,3.6,4.57,5.75,0-2.15,2.86-5.75,4.57-5.75-1.71,0-4.57-3.6-4.57-5.75Z"/>
    </g>
    <g>
      <path class="cls-2" d="M235.83,38.66c0,3.06-4.08,8.19-6.51,8.19,2.44,0,6.51,5.13,6.51,8.19,0-3.06,4.08-8.19,6.51-8.19-2.44,0-6.51-5.13-6.51-8.19Z"/>
      <path class="cls-2" d="M243.54,62.22c0,2.15-2.86,5.75-4.57,5.75,1.71,0,4.57,3.6,4.57,5.75,0-2.15,2.86-5.75,4.57-5.75-1.71,0-4.57-3.6-4.57-5.75Z"/>
    </g>
  </g>
</svg>