<?xml version="1.0" encoding="UTF-8"?>
<svg id="_レイヤー_2" data-name="レイヤー 2" xmlns="http://www.w3.org/2000/svg" viewBox="0 0 197.4 156.88">
  <defs>
    <style>
      .cls-1 {
        fill: #fff;
      }
    </style>
  </defs>
  <g id="_施工管理募集" data-name="施工管理募集">
    <polygon class="cls-1" points="96.42 65.72 78.45 121.24 96.42 121.24 96.42 65.72"/>
    <path class="cls-1" d="M113.69,24.53l-14.3,44.17v55.52h-17.97l-1.8,5.56,64.41,20.85,19.3,6.25,18.75-57.95,15.31-47.31-83.71-27.09ZM156.38,139.72l-26.31-8.51,8.51-26.31,26.31,8.51-8.51,26.31ZM169.04,100.58l-61.06-19.76.69-2.14,61.06,19.76-.69,2.14ZM174.51,83.69l-61.06-19.76.69-2.14,61.06,19.76-.69,2.14ZM179.97,66.8l-61.06-19.76.69-2.13,61.06,19.76-.69,2.14Z"/>
    <path class="cls-1" d="M0,0v121.24h78.45l5.27-16.27H9.74v-2.46h74.77l11.91-36.79V0H0ZM86.68,87.72H9.74v-2.46h76.94v2.46ZM86.68,70.47H9.74v-2.46h76.94v2.46ZM86.68,53.23H9.74v-2.46h76.94v2.46ZM86.68,35.98H9.74v-2.46h76.94v2.46ZM86.68,18.73H9.74v-2.46h76.94v2.46Z"/>
  </g>
</svg>