<?xml version="1.0" encoding="UTF-8"?>
<svg id="_レイヤー_2" data-name="レイヤー 2" xmlns="http://www.w3.org/2000/svg" viewBox="0 0 144.63 156.88">
  <defs>
    <style>
      .cls-1 {
        fill: #fff;
      }
    </style>
  </defs>
  <g id="_施工管理募集" data-name="施工管理募集">
    <path class="cls-1" d="M0,0v32.61h58.41V0H0ZM18.47,14.16v1.07h-3.03l-1.21,2.1h4.23v1.07h-4.47v5.95h-2.88v-5.95h-4.36v-1.07h4.13l-1.19-2.1h-2.94v-1.07h2.33l-3.26-5.78h3.17l3.26,5.95c.21.37.32.6.51.97.19-.39.3-.6.53-.99l3.15-5.93h2.92l-3.32,5.78h2.41ZM52.36,21.68h-29.2v-1.76h29.2v1.76ZM52.36,17.18h-29.2v-1.76h29.2v1.76ZM52.36,12.69h-29.2v-1.76h29.2v1.76Z"/>
    <path class="cls-1" d="M86.23,0v32.61h58.41V0h-58.41ZM104.69,14.16v1.07h-3.03l-1.21,2.1h4.23v1.07h-4.47v5.95h-2.88v-5.95h-4.36v-1.07h4.13l-1.19-2.1h-2.94v-1.07h2.33l-3.26-5.78h3.17l3.26,5.95c.21.37.32.6.51.97.19-.39.3-.6.53-.99l3.15-5.93h2.92l-3.32,5.78h2.41ZM138.58,21.68h-29.2v-1.76h29.2v1.76ZM138.58,17.18h-29.2v-1.76h29.2v1.76ZM138.58,12.69h-29.2v-1.76h29.2v1.76Z"/>
    <path class="cls-1" d="M115.43,39.92c-9.69,0-17.54,7.85-17.54,17.54,0,4.87,1.98,9.27,5.18,12.45,3.17,3.15,7.54,5.09,12.36,5.09s9.18-1.95,12.36-5.09c3.2-3.18,5.18-7.58,5.18-12.45,0-9.69-7.85-17.54-17.54-17.54Z"/>
    <path class="cls-1" d="M127.79,73.66c-3.17,3.15-7.54,5.09-12.35,5.09s-9.18-1.95-12.36-5.09c-8.43,3.97-14.27,12.54-14.27,22.49v60.73h53.26v-60.73c0-9.94-5.84-18.51-14.27-22.49ZM126.5,128.83l-10.47-7.61-10.47,7.61,4-12.31-10.47-7.61h12.94l4-12.31,4,12.31h12.94l-10.47,7.61,4,12.31Z"/>
    <path class="cls-1" d="M29.2,39.92c-9.69,0-17.54,7.85-17.54,17.54,0,4.87,1.98,9.27,5.18,12.45,3.17,3.15,7.54,5.09,12.36,5.09s9.18-1.95,12.36-5.09c3.2-3.18,5.18-7.58,5.18-12.45,0-9.69-7.85-17.54-17.54-17.54Z"/>
    <path class="cls-1" d="M41.56,73.66c-3.17,3.15-7.54,5.09-12.36,5.09s-9.18-1.95-12.35-5.09c-8.43,3.97-14.27,12.54-14.27,22.49v60.73h53.26v-60.73c0-9.94-5.84-18.51-14.27-22.49ZM24.21,130.61l-6.37-4.63-6.37,4.63,2.43-7.49-6.37-4.63h7.88l2.43-7.49,2.43,7.49h7.88l-6.37,4.63,2.43,7.49ZM22.83,110.99l2.43-7.49-6.37-4.63h7.88l2.43-7.49,2.43,7.49h7.88l-6.37,4.63,2.43,7.49-6.37-4.63-6.37,4.63ZM46.94,130.61l-6.37-4.63-6.37,4.63,2.43-7.49-6.37-4.63h7.88l2.43-7.49,2.43,7.49h7.88l-6.37,4.63,2.43,7.49Z"/>
  </g>
</svg>