<?xml version="1.0" encoding="UTF-8"?>
<svg id="_レイヤー_2" data-name="レイヤー 2" xmlns="http://www.w3.org/2000/svg" viewBox="0 0 268.79 149.52">
  <defs>
    <style>
      .cls-1 {
        fill: #fff;
      }
    </style>
  </defs>
  <g id="_施工管理募集" data-name="施工管理募集">
    <path class="cls-1" d="M0,0v66.63h119.36V0H0ZM37.73,28.95v2.19h-6.18l-2.47,4.29h8.65v2.19h-9.12v12.15h-5.88v-12.15h-8.91v-2.19h8.43l-2.42-4.29h-6.01v-2.19h4.76l-6.66-11.82h6.49l6.66,12.15c.43.76.65,1.22,1.04,1.98.39-.8.6-1.22,1.08-2.02l6.44-12.11h5.97l-6.79,11.82h4.93ZM106.99,44.29h-59.68v-3.59h59.68v3.59ZM106.99,35.11h-59.68v-3.59h59.68v3.59ZM106.99,25.93h-59.68v-3.59h59.68v3.59Z"/>
    <path class="cls-1" d="M148.19,119.25c-8.36,0-15.13,6.78-15.13,15.13s6.78,15.13,15.13,15.13,15.13-6.78,15.13-15.13-6.78-15.13-15.13-15.13ZM148.19,141.95c-4.18,0-7.57-3.39-7.57-7.57s3.39-7.57,7.57-7.57,7.57,3.39,7.57,7.57-3.39,7.57-7.57,7.57Z"/>
    <path class="cls-1" d="M230.01,119.25c-8.36,0-15.13,6.78-15.13,15.13s6.78,15.13,15.13,15.13,15.13-6.78,15.13-15.13-6.78-15.13-15.13-15.13ZM230.01,141.95c-4.18,0-7.57-3.39-7.57-7.57s3.39-7.57,7.57-7.57,7.57,3.39,7.57,7.57-3.39,7.57-7.57,7.57Z"/>
    <path class="cls-1" d="M268.27,115.85l-8.07-29.78c-.62-2.3-2-4.25-3.82-5.6-.87-.65-1.48-1.57-1.63-2.64-1.01-7.11-2.13-14.21-3.62-21.32-1.51-6.96-7.48-12.6-13.34-12.6h-86.55c-5.86,0-11.83,5.64-13.34,12.6-1.54,7.38-3.08,14.76-4.63,22.14-.33,1.58-1.6,2.77-3.19,3.03-19.33,3.1-40.63,14.84-40.63,33.58v14.05c0,3.22,2.61,5.83,5.83,5.83h34.73c-.01-.27-.04-.53-.04-.8,0-10.01,8.12-18.13,18.13-18.13s18.13,8.12,18.13,18.13c0,.27-.03.54-.04.8h45.75c-.01-.27-.04-.53-.04-.8,0-10.01,8.12-18.13,18.13-18.13s18.13,8.12,18.13,18.13c0,.27-.03.54-.04.8h4.25c7.32,0,13.54-4.74,15.76-11.32.86-2.57.85-5.35.14-7.97ZM191.12,57.48v16.93c-.21,3.05-3.07,5.52-6.4,5.51l-38.4-.14c-2.47,0-4.21-2.06-3.65-4.29l4.56-18.17c.81-2.9,3.3-5.52,6.39-5.51l31.85.12c3.33.01,5.86,2.5,5.65,5.55ZM239.69,79.91h-36.62c-3.27,0-5.86-2.52-5.78-5.63l.41-17.24c.07-3.11,2.78-5.63,6.05-5.63h31.29c3.04,0,5.25,2.67,5.78,5.63l2.84,18.51c.35,2.28-1.55,4.36-3.97,4.36Z"/>
  </g>
</svg>