<?xml version="1.0" encoding="UTF-8"?>
<svg id="_レイヤー_2" data-name="レイヤー 2" xmlns="http://www.w3.org/2000/svg" viewBox="0 0 268.64 88.49">
  <defs>
    <style>
      .cls-1 {
        fill: #fff;
      }
    </style>
  </defs>
  <g id="_施工管理募集" data-name="施工管理募集">
    <path class="cls-1" d="M119.94,11.58v56.6h-44.12v8.82h117.19V11.58h-73.06ZM122.27,33.52h58.59v3.53h-58.59v-3.53ZM122.27,42.53h58.59v3.53h-58.59v-3.53ZM180.86,55.07h-58.59v-3.53h58.59v3.53Z"/>
    <path class="cls-1" d="M195.58,23.07v56.6h-44.12v8.82h117.19V23.07h-73.06ZM256.5,66.56h-58.59v-3.53h58.59v3.53ZM256.5,57.54h-58.59v-3.53h58.59v3.53ZM256.5,48.53h-58.59v-3.53h58.59v3.53Z"/>
    <path class="cls-1" d="M0,0v65.42h117.19V0H0ZM37.05,28.42v2.15h-6.07l-2.42,4.21h8.49v2.15h-8.96v11.93h-5.77v-11.93h-8.75v-2.15h8.28l-2.38-4.21h-5.9v-2.15h4.67l-6.54-11.6h6.37l6.54,11.93c.42.74.64,1.2,1.02,1.94.38-.79.59-1.2,1.06-1.98l6.33-11.89h5.86l-6.67,11.6h4.84ZM105.04,43.49h-58.59v-3.53h58.59v3.53ZM105.04,34.47h-58.59v-3.53h58.59v3.53ZM105.04,25.46h-58.59v-3.53h58.59v3.53Z"/>
  </g>
</svg>