<?xml version="1.0" encoding="UTF-8"?>
<svg id="_レイヤー_2" data-name="レイヤー 2" xmlns="http://www.w3.org/2000/svg" viewBox="0 0 197.67 140.35">
  <defs>
    <style>
      .cls-1 {
        fill: #fff;
      }
    </style>
  </defs>
  <g id="_内容" data-name="内容">
    <path class="cls-1" d="M19.32,16.84c.27.27.41.54.54.95.14.34-.41,2.36-1.49,6.15,1.42-.2,5.2-.81,11.14-1.69,6.01-.95,9.12-1.35,9.32-1.28.14,0,.34.14.54.27.2.14.4.34.54.61.2.2.34.47.41.74s.14.47.14.61-.07.2-.14.27c-.07,0-2.7.47-7.9,1.42-5.13.88-8.78,1.42-10.81,1.69-2.09.27-3.38.27-3.92.14-.74,3.18-1.22,5.27-1.42,6.28-.2.95-.34,2.16-.41,3.58,1.89-.34,6.15-1.01,12.76-2.09,6.69-1.08,10.33-1.55,11.01-1.35.68.14,1.08.34,1.22.61.13.27.07,1.49-.14,3.65-.14,2.16-.54,4.46-1.01,7.03,1.15,0,3.58-.14,7.29-.34,3.71-.2,5.81-.27,6.35-.14.47.14.95.41,1.35.74.34.27.61.61.74.81.14.27.14.47.14.61-.07.14-.14.27-.27.41-.07.14-.34.27-.81.41-.41.2-1.08.34-1.89.34-.81.07-2.9.27-6.35.74-3.44.41-5.81.68-7.02.81-.54,2.77-1.22,5.88-2.03,9.26-.81,3.45-1.35,5.2-1.62,5.34-.34.14-.74.2-1.22.14-.47-.07-1.01-.2-1.69-.47s-2.09-.81-4.32-1.69c-2.23-.88-3.58-1.49-3.98-1.82s-.74-.88-1.08-1.62c-.34-.68-.54-1.01-.54-1.01h.07c.07,0,.2,0,.54.14.27.07,3.44,1.22,9.59,3.45.74-2.36,1.28-4.46,1.69-6.22.34-1.76.68-3.45,1.01-5.14-2.63.41-7.56,1.01-14.65,1.76-7.09.74-11.55,1.22-13.3,1.35-1.76.2-3.11.27-3.92.27-.88-.07-1.55-.14-2.03-.27-.47-.14-.81-.27-1.08-.47-.27-.61-.47-.95-.61-1.15-.07-.2-.07-.34-.07-.41,0-.14.14-.2.27-.27.13-.07,4.32-.68,12.49-1.69,8.17-1.08,13.78-1.82,16.75-2.36,2.97-.47,5.2-.81,6.69-.95.47-2.36.88-4.19,1.01-5.47.2-1.35.34-2.36.47-3.18-1.82.34-5.54.88-11.01,1.69-5.47.88-8.91,1.42-10.33,1.62-1.42.2-2.43.41-2.97.47-.54.14-.95,0-1.28-.34-.27-.34-.27-1.22,0-2.64.34-1.42.54-2.5.68-3.38.13-.81.27-1.69.54-2.77.2-1.01.47-2.16.81-3.38.41-1.22.81-2.84,1.28-4.86.47-1.96.88-3.38,1.15-4.19.2-.74.54-1.35.81-1.76.27-.41.74-.47,1.49-.34.07,0,.2.14.47.41ZM1.08,10.35c2.09,1.08,3.51,2.84,4.39,5.27s2.43,4.59,4.52,6.42c-.74.95-1.89.95-3.65-.14C3.51,18.53,1.42,15.15.07,11.77c0-1.15.34-1.62,1.01-1.42ZM8.58,14.34c-.68-.2-1.28-.61-1.69-1.22-.47-.61-.54-1.22-.2-1.89,5.34-.95,10.87-1.96,16.55-3.04,5.74-1.08,11.01-1.82,15.87-2.09,4.86-.34,8.31-.27,10.4.14,2.03.41,3.31,1.22,3.78,2.36l-1.35,1.96-6.21,9.26c-.81.2-1.42.27-1.76.27-.34-.07-.68-.41-1.01-1.08-.27-.68,0-1.15.88-1.49,1.55-2.77,3.24-5.68,5.13-8.72-4.32-.54-16.21.81-35.46,4.05l-2.84,1.15c-.74.41-1.42.47-2.09.34Z"/>
    <path class="cls-1" d="M64.26,51.36c.07-.34.2-.54.41-.68.13-.14.47-.34,1.01-.54.47-.27,1.08-.47,1.76-.61.61-.14,7.09-.95,19.25-2.43,12.22-1.55,19.11-2.36,20.67-2.57s2.84-.34,3.85-.34,1.89.07,2.57.14c.68.07,1.15.27,1.49.61.34.27.47.61.34,1.01-.13.34-.27.61-.47.74-.27.14-1.22.34-2.84.68-1.69.27-8.51,1.15-20.53,2.57-12.02,1.42-18.84,2.23-20.4,2.5-1.62.2-2.9.34-3.92.41-1.01.07-1.69.07-2.03.07-.34-.07-.61-.14-.81-.27s-.34-.2-.41-.27c-.07-.07-.07-.14-.07-.27s.07-.41.14-.74ZM92.89,7.51c3.24-.41,6.69-.81,10.13-1.15,3.51-.34,5.61-.34,6.21-.07s.81.74.54,1.35c-.27.61-2.23,1.15-6.08,1.55-3.78.34-7.43.95-10.81,1.62-.47,2.03-.47,4.05-.07,6.08,4.52-1.35,7.43-1.82,8.78-1.62.81,0,1.28.47,1.42,1.55s.27,2.23.41,3.65c.2,1.35.27,3.72.27,7.03s.07,6.28.27,8.72c.14,2.43-.13,4.26-.88,5.34-1.89.47-6.08,1.28-12.63,2.3-6.48,1.01-10.67,1.62-12.49,1.89-.95-.41-1.49-.74-1.55-1.08s0-.68.27-.95.88-.61,1.76-1.01c-.74-7.84-.61-14.46.34-20-.14-2.36-.07-3.85.14-4.32.2-.54.47-.88.88-1.08.34-.2.61-.27.81-.2s.54.61,1.08,1.55c3.98-.68,6.48-1.15,7.36-1.55.2-2.09.34-4.12.41-6.08-4.32.68-8.17,1.28-11.62,1.76-3.38.54-5.33.41-5.81-.2-.41-.68-.41-1.15.07-1.55s2.23-.81,5.34-1.22c3.11-.34,7.16-1.01,12.16-1.82l.14-5.2c-.2-1.96.27-2.91,1.42-2.77,1.08.2,1.69,1.49,1.76,3.92v3.58ZM82.63,54.54c.47.68.61,1.22.47,1.49-.14.34-.81,1.15-1.96,2.43-1.15,1.28-2.16,2.3-2.9,3.18-.81.81-1.35,1.28-1.69,1.49-.27.27-.54.41-.68.41-.13.07-.4,0-.81-.14-.41-.14-.68-.34-.74-.41-.13-.14-.2-.27-.34-.41-.07-.07-.14-.2-.2-.34,0-.07,0-.27.07-.54s.14-.54.27-.81c.14-.27.61-.74,1.49-1.55.81-.74,1.42-1.35,1.89-1.76.41-.34,1.08-1.22,2.16-2.64,1.01-1.35,1.55-2.03,1.62-2.03,0-.07.07,0,.14.07.07.07.27.2.47.54.07,0,.34.34.74,1.01ZM81.28,41.84c11.75-1.62,18.23-2.64,19.32-3.04.13-2.16.13-3.92-.07-5.27l-19.52,3.58c-.13,1.89,0,3.45.27,4.73ZM86.34,20.76c-2.7.54-4.32.74-4.79.61-.61,1.96-.74,3.72-.34,5.34,3.98-1.22,10.54-2.57,19.72-3.92,0-1.55-.07-2.77-.34-3.58l-1.69-.61c-5.61.88-9.79,1.62-12.56,2.16ZM81.14,34.4c4.93-.61,11.48-1.76,19.65-3.38.07-2.36.07-4.19.07-5.34l-19.65,3.85-.07,4.86ZM100.12,51.63c.74.14,1.55.54,2.43,1.15s1.76,1.35,2.57,2.16c.81.81,1.89,1.89,3.17,3.31,1.35,1.42,2.03,2.23,2.16,2.5.14.27.2.54.07.81-.07.27-.27.41-.54.41-.2,0-.54,0-.81-.07-.34-.07-.88-.27-1.76-.61s-1.69-.88-2.36-1.62c-.74-.74-1.96-1.96-3.58-3.65-1.62-1.76-2.7-2.7-3.11-3.04-.41-.27-.34-.81.27-1.42.27-.14.81-.14,1.49.07Z"/>
    <path class="cls-1" d="M156.38,51.84c-4.02,2.01-7.56,3.48-10.49,4.3-2.94.82-5.33.98-7.18.49-1.9-.49-3.1-1.14-3.7-2.01-.54-.82-.71-1.79-.54-2.88,1.74-5.38,4.62-9.95,8.7-13.71-.38-.98-1.25-1.41-2.5-1.31s-2.77.82-4.51,2.12c-1.79,1.25-3.37,2.61-4.84,3.92-1.2.16-1.74-.44-1.58-1.79,1.79-5.11,4.02-10.23,6.58-15.28-1.63.27-2.88.6-3.81,1.03-.92.49-1.63.65-2.23.49-.54-.16-1.2-.71-2.01-1.58-.11-.65.54-1.14,1.96-1.47,1.41-.33,4.13-.87,8.15-1.58l1.41-3.21c.22-.82.49-1.09.87-.82.33.22.6.44.82.71.22.22.33,1.03.33,2.34,1.52-.05,3.15-.22,4.89-.6,1.74-.38,2.99-.27,3.7.27.76.54,1.09,1.03.98,1.41-.16.38-1.14.6-3.1.65-1.9.11-4.51.54-7.77,1.31-2.39,3.37-4.35,7.23-5.87,11.58,1.41-.65,2.72-1.2,3.91-1.63,1.2-.49,2.17-.65,2.99-.6.82.05,1.85.82,3.15,2.28,2.17-1.52,3.91-2.77,5.16-3.75,1.25-.92,2.39-1.14,3.32-.6s1.25,1.2.92,1.96c-.38.16-1.25.54-2.55,1.09-1.25.6-3.15,2.01-5.6,4.19-.38,3.1-.6,6.31-.6,9.57-.6.49-1.2.49-1.85,0-.44-1.63-.65-3.64-.65-6.09-2.83,2.94-4.51,5.28-5.06,7.12-.6,1.79-.65,3.1-.16,3.86.43.71,2.17.87,5.06.49,2.94-.44,6.96-2.01,12.18-4.79,1.2.44,1.74,1.31,1.52,2.5Z"/>
    <path class="cls-1" d="M6.34,134.64c-1.89-2.34-3.25-5.74-4.08-10.35-.83-4.61-1.06-8.92-.76-12.85.38-4.01.91-7.26,1.74-9.83.83-2.57,2.34-5.37,4.61-8.47,2.27-3.1,4.84-4.91,7.63-5.59,2.87-.6,5.21-.3,6.95.91,1.81,1.28,3.25,2.72,4.38,4.31,1.13,1.51,2.04,3.33,2.72,5.29.76,1.97.98,3.55.83,4.76-.15,1.28-.45,1.89-.91,1.89-.38,0-.91-.15-1.59-.45-.68-.23-1.13-.98-1.28-2.04-.3-3.55-1.21-6.27-2.72-8.09s-2.8-2.72-4-2.8c-1.21-.08-2.27.08-3.32.3-4.53,2.19-7.55,5.82-9.07,10.73-2.04,7.03-2.12,15.19-.15,24.56,1.51,4.23,3.17,6.65,5.14,7.1,7.33-1.21,13.45-4.84,18.43-10.81.83-.23,1.13.3.91,1.59-2.95,8.31-8.69,12.7-17.23,13.3-3.55-.08-6.27-1.21-8.23-3.48Z"/>
    <path class="cls-1" d="M46.28,139.29c-1.81-.76-2.72-2.72-2.8-5.9,0-3.1.08-6.73.3-10.73.45-7.71.53-14.44.3-20.18-.3-5.67.15-10.28,1.44-13.68.53-.23,1.13-.15,1.59.15.53.38.98,1.06,1.59,2.12-.91,5.22-1.13,11.64-.83,19.42-.3,7.18-.6,15.04-.98,23.58,1.81,1.13,4.76,1.66,8.91,1.51,4.16-.15,7.56-.45,10.2-.83,2.64-.38,4,0,4,1.13.08,1.06-.23,1.81-.83,2.27-.6.45-2.64.83-6.2,1.06-3.55.3-5.74.45-6.65.45-4.84.53-8.23.45-10.05-.38Z"/>
    <path class="cls-1" d="M88.92,133.58c.98-15.27,1.13-29.78.38-43.61-3.47-.23-5.29-.53-5.59-.91-.23-.38-.3-.76-.15-1.13.15-.45.6-.76,1.36-.91,3.55-.6,6.87-.91,9.9-.98,3.1-.15,4.91.08,5.52.6.68.6,1.06.98,1.13,1.21.08.23-.45.53-1.44.91l-6.12.68c-.3,4.08-.38,7.94-.08,11.41.23,3.48.08,6.58-.45,9.37v22.3l6.04.6c.91-.15,1.51.23,1.74,1.13.15,1.51-1.44,2.34-4.76,2.49-3.32.15-5.74.38-7.33.76s-2.87.45-3.78.23c-.98-.23-1.59-.6-1.96-1.13-.3-.53-.38-1.44-.3-2.72.91-.45,2.87-.6,5.89-.3Z"/>
    <path class="cls-1" d="M119.68,136.87c-1.89-2.34-3.25-5.74-4.08-10.35-.83-4.61-1.06-8.92-.76-12.85.38-4.01.91-7.26,1.74-9.83.83-2.57,2.34-5.37,4.61-8.47,2.27-3.1,4.84-4.91,7.63-5.59,2.87-.6,5.21-.3,6.95.91,1.81,1.28,3.25,2.72,4.38,4.31,1.13,1.51,2.04,3.33,2.72,5.29.76,1.97.98,3.55.83,4.76-.15,1.28-.45,1.89-.91,1.89-.38,0-.91-.15-1.59-.45-.68-.23-1.13-.98-1.28-2.04-.3-3.55-1.21-6.27-2.72-8.09s-2.8-2.72-4-2.8c-1.21-.08-2.27.08-3.32.3-4.53,2.19-7.55,5.82-9.07,10.73-2.04,7.03-2.12,15.19-.15,24.56,1.51,4.23,3.17,6.65,5.14,7.1,7.33-1.21,13.45-4.84,18.43-10.81.83-.23,1.13.3.91,1.59-2.95,8.31-8.69,12.7-17.23,13.3-3.55-.08-6.27-1.21-8.23-3.48Z"/>
    <path class="cls-1" d="M160.17,84.92c0,3.55-.15,7.48-.3,11.79-.15,4.31-.08,9.15.23,14.59,5.52-8.92,10.88-17.31,16.02-25.24.45-.38.83-.53,1.21-.38.38.15.98.68,1.66,1.44.68.76.45,1.97-.76,3.63-2.64,3.25-4.68,5.9-6.04,8.09-1.44,2.12-2.49,3.78-3.1,4.99-.6,1.21-2.19,3.93-4.68,8.16,4.46,7.26,8.01,12.55,10.8,15.72,2.72,3.17,4.38,5.06,4.91,5.52s.83.98.91,1.59c0,.6-.38,1.06-1.21,1.36-.83.38-1.59.38-2.27,0-.6-.3-2.19-2.19-4.76-5.59-2.49-3.4-5.67-7.63-9.59-12.7l-2.95-3.78c-1.06,11.34-1.51,17.69-1.44,18.97.08,1.36-.15,2.34-.83,2.95-.6.6-1.36.76-2.19.38-.76-.3-.83-3.63-.08-9.98,0-14.51.38-28.8,1.06-42.85.91-.83,2.04-.38,3.4,1.36Z"/>
    <g>
      <rect class="cls-1" x="183.84" y="65.23" width="2.11" height="13.44" rx="1.06" ry="1.06" transform="translate(51.76 -75.15) rotate(26.59)"/>
      <path class="cls-1" d="M175.16,63.55h0c-.56,0-.96.4-.89.91l1.38,9.89c.07.51.58.93,1.15.94h0c.56,0,.96-.4.89-.91l-1.38-9.89c-.07-.51-.58-.93-1.15-.94Z"/>
      <path class="cls-1" d="M197.46,74.71h0c-.34-.45-.99-.6-1.44-.36l-8.75,4.82c-.45.25-.54.81-.2,1.26h0c.34.45.99.6,1.44.36l8.75-4.82c.45-.25.54-.81.2-1.26Z"/>
    </g>
  </g>
</svg>