<?xml version="1.0" encoding="UTF-8"?>
<svg id="_レイヤー_2" data-name="レイヤー 2" xmlns="http://www.w3.org/2000/svg" viewBox="0 0 68.14 98.04">
  <defs>
    <style>
      .cls-1 {
        fill: #38a1db;
      }
    </style>
  </defs>
  <g id="design">
    <path class="cls-1" d="M67.91,16.92c-1.01-6.19-5.61-12.04-11.72-14.9-6.12-2.87-13.55-2.66-18.96.53-5.92,3.5-8.81,9.77-11.13,14.81-2.09,4.53-6.34,13.69-10.64,22.93-4.45,9.59-8.94,19.27-11.12,23.97C2.22,68.88.29,73.45.02,78.54c-.33,6.48,3.17,12.61,8.93,15.63,1.1.58,2.24,1.01,3.39,1.3.04.02.08.04.12.05,4.1,1.28,8.35.47,11.88-2,.36-.25.7-.52,1.05-.81.03-.02.06-.04.09-.06.06-.05.12-.11.17-.16,1.88-1.63,3.51-3.77,4.71-6.34l22.75-48.77c1.77-3.79,2.33-7.89,1.58-11.55-.8-3.89-2.96-6.84-6.08-8.3-3.13-1.46-6.78-1.23-10.28.67-3.28,1.77-6.06,4.84-7.83,8.63l-15.86,34.01c-.5,1.06-.04,2.32,1.02,2.81,1.06.5,2.32.04,2.81-1.02l15.86-34.01c1.38-2.97,3.52-5.35,6.01-6.7,2.28-1.24,4.58-1.43,6.47-.55,1.88.88,3.2,2.76,3.73,5.31.56,2.77.12,5.94-1.27,8.91l-22.75,48.77c-.94,2.02-2.19,3.68-3.61,4.92,0,0-.02,0-.02.01-3.59,2.8-7.98,3.2-11.96,1.12-4.3-2.25-6.92-6.83-6.67-11.66.22-4.33,1.99-8.49,3.94-12.72,2.17-4.69,6.66-14.37,11.11-23.96,4.29-9.25,8.54-18.42,10.64-22.95,2.64-5.73,5.01-10.33,9.44-12.93,4.23-2.5,10.12-2.64,15.01-.35,4.88,2.29,8.55,6.9,9.34,11.75.81,5.02-1.16,9.75-3.83,15.42-3.38,7.19-9.05,19.28-14.7,31.32-5.54,11.83-11.07,23.62-14.39,30.68-.5,1.06-.04,2.32,1.02,2.82.71.34,1.52.25,2.12-.18.29-.2.54-.49.7-.83,3.32-7.07,8.85-18.86,14.4-30.69,5.65-12.04,11.31-24.12,14.69-31.32,2.35-4.99,5.27-11.19,4.18-17.91Z"/>
  </g>
</svg>