<?xml version="1.0" encoding="UTF-8"?>
<svg id="_レイヤー_2" data-name="レイヤー 2" xmlns="http://www.w3.org/2000/svg" viewBox="0 0 208.25 16.18">
  <defs>
    <style>
      .cls-1 {
        fill: #d4ecfa;
      }
    </style>
  </defs>
  <g id="_レイヤー_1-2" data-name="レイヤー 1">
    <g>
      <path class="cls-1" d="M155.44,5.26c-.38.06-.87.02-1.12.19-.49.32-1.04.5-1.63.67-1.03.29-2.01.68-3.03.98-1.55.44-3.12.84-4.67,1.26-.89.24-1.78.48-2.67.72-.3.08-.58.2-.88.26-1.69.32-3.3.78-4.77,1.51-.53.27-1.22.2-1.84.21-.2,0-.43-.14-.59-.26-.16-.12-.33-.29-.37-.46-.23-1.06-.81-2.08-.78-3.18.01-.38-.27-.68-.79-.81-2.12-.56-4.28-.95-6.5-1.14-.11-.01-.28-.14-.3-.23-.02-.09.09-.21.19-.29.3-.21.67-.34,1.08-.3.55.05,1.08.16,1.63.25.29.05.61-.04.57-.17-.07-.2-.28-.3-.52-.33-1.72-.22-3.45-.42-5.18-.64-.57-.07-1.19-.08-1.62.13-.64.31-1.34.32-2.02.45-.56.11-1.05.09-1.6-.08-.43-.13-.94-.12-1.41-.13-1.98-.04-3.95-.13-5.92-.33-.52-.05-2.41.19-3.22.37-.07.02-.16-.01-.24-.02,0,0-.12.06-.12.06l.18-.03c-.5.33-1.05.52-1.74.39-1.03-.19-1.88.02-2.55.63-.06.06-.27.02-.41.03.06-.54-.76-.4-.93-.66-.36-.55-.88-.58-1.3-.25-.61.47-1.41.5-2.13.71-.28.08-.26.2.11.51-.42.21-.9.14-1.36.19-.47.05-.94.1-1.41.17-1.01.15-2.01.33-3.02.47-1.4.19-2.82.32-4.18.62-.15.03-.32.08-.46.07-1.1-.14-2.02.18-2.9.61-.19.09-.43.15-.66.18-.87.09-1.67.33-2.49.55-1.04.27-2.16.39-3.19.67-.96.26-1.86.64-2.87.83-.45.09-.87.27-1.31.4-.74.21-1.47.45-2.23.6-1.77.33-3.5.74-5.21,1.21-.51.14-1.06.2-1.51.28-.59-.17-.83-.5-1.04-.82-.85-1.36-1-2.78-.71-4.23.06-.29.14-.58.22-.91-.23-.1-.41-.21-.62-.26-.22-.06-.49-.03-.7-.1-1.37-.45-2.76-.54-4.21-.32-.37.06-.78-.02-1.17-.04-.16,0-.32-.08-.47-.06-1.4.19-2.84.03-4.25.22-1.48.19-2.98.24-4.49.28-1.41.03-2.82.27-4.21.49-2.24.36-4.46.78-6.71,1.12-1,.15-2.04.19-2.99.51-.58.2-1.27-.12-1.86.15-.6.28-1.23.09-1.86.05-.16-.01-.35-.03-.47.03-1.01.46-2.26.48-3.25,1-.5.26-1.12.47-1.72.55-1.88.24-3.62.85-5.5,1.05-.08,0-.15.04-.23.05-1.41.23-2.63.81-3.97,1.17-1.34.36-2.72.59-4.01,1.08-1.62.61-3.34,1.06-4.98,1.64-.87.31-1.68.63-2.4,1.11-.64.42-1.12.39-1.91-.03-.26-.14-.5-.31-.79-.41-.49-.17-.75-.46-.88-.81-.46-1.21-.81-1.42,1.05-2.11,1.2-.45,2.4-.91,3.62-1.33,1.79-.62,3.61-1.2,5.41-1.79.36-.12.73-.23,1.11-.3,2.86-.51,5.58-1.33,8.38-1.95.61-.13,1.22-.28,1.84-.35,1.73-.18,3.39-.57,5.09-.85,3.32-.53,6.62-1.16,9.97-1.58.78-.1,1.54-.26,2.32-.37.39-.06.79-.14,1.17-.09.9.1,1.71-.05,2.55-.26.97-.25,2-.32,3.02-.43,2.43-.27,4.87-.45,7.35-.39.47.01.96,0,1.41-.07,2.54-.39,5.06-.12,7.58.25.7.1,1.38.31,2.07.45,1.5.3,2.81.87,3.98,1.63.53.35,1.1.44,1.78.3,1.68-.34,3.37-.65,5.06-.96,1.53-.28,3.02-.72,4.64-.69.31,0,.61-.11.92-.17,1.77-.34,3.56-.57,5.38-.68.47-.03.95-.1,1.38-.24.52-.16,1.04-.27,1.6-.3,3.01-.2,3.95-.33,6.49-.92.46-.11.91-.21,1.4-.16,1.04.11,2.06.02,3.09-.07.4-.04.81-.07,1.15.12.54.3,1.03.21,1.55,0,.36-.14.74-.17,1.15-.07.39.1.78.08,1.16-.05.58-.2,1.16-.36,1.82-.36,1.91,0,3.79-.24,5.69-.27.39,0,.79.02,1.18.03.48.02.96.03,1.43.07,1.26.12,2.51-.18,3.8.06,1.15.21,2.37.23,3.56.31,1.83.12,3.64.31,5.41.72.62.14,1.08-.03,1.51-.32h-.02c1.32.42,2.63.86,3.96,1.27.89.28,1.79.52,2.73.79,2-.31,4.01-.61,6.03-.93.47-.07.94-.17,1.4-.01.56.18,1.09.14,1.62-.02,1.25-.39,2.55-.58,3.92-.58.71,0,1.41-.15,2.11-.21,1.72-.17,3.45-.32,5.16-.56.84-.12,1.73-.12,2.61.04.62.11,1.25.09,1.85-.15.73-.28,1.57-.06,2.33-.18.69-.11,1.36-.3,2.05-.43.22-.04.48-.01.7.04,1.09.24,2.2.27,3.31.19.31-.02.64-.03.95-.01,1.28.09,2.53-.06,3.79-.19,1.25-.13,2.51-.23,3.77-.34,1.56.39,3.14.06,4.72.11,2.93.11,5.87.08,8.81.1.32,0,.63-.01.95-.03.71-.04,1.36-.46,2.07-.29.6.15,1.21.29,1.82.41.3.06.63.06.93.02.54-.07,1.08-.19,1.61-.3.71-.15,1.41-.16,2.07.14.37.17.78.2,1.15.1,1.09-.31,2.19.07,3.28,0,.21-.01.46.1.66.2.4.2.76.43,1.16.66.46.62.54,1.38,1.2,1.94.04.04-.06.22-.15.29-.1.08-.3.1-.41.17-.5.34-.44.73.15,1.02.13.07.29.1.42.17.05.03.09.1.08.15-.02.14-.14.17-.32.13-.22-.06-.45-.14-.68-.17-.42-.05-.77.07-1.09.26-.21.13-.24.31-.04.45.24.16.49.3.72.46.05.03.08.13.05.17-.08.1-.2.26-.3.25-.94-.03-1.92.01-2.79-.31-.83-.3-1.66-.4-2.54-.41-.79,0-1.57-.04-2.33-.32-.4-.15-.93-.06-1.4-.1-.39-.03-.78-.07-1.17-.12-.26-.04-.44-.39-.34-.59.08-.16.37-.26.6-.18.22.08.41.2.63.26.24.07.44,0,.6-.16.43-.42.26-.81-.43-.89-.23-.03-.48-.05-.71-.03-.39.03-.78.1-1.17.15,0,0-.08-.04-.08-.04l.13-.02c-.42.17-.85.32-1.34.26-.22-.03-.53-.06-.64-.18-.43-.47-1.06-.52-1.69-.5-1.88.06-3.76.13-5.65.01-1.48.26-2.95.04-4.43-.06-.85-.05-1.72.08-2.58.12-.49.03-.95-.02-1.32-.3,0,0-.09.04-.09.04l.16-.05c-.52.29-1.11.46-1.77.41-.96-.07-1.9-.03-2.84.12-.45.07-.95,0-1.42,0-1.67.01-3.34-.06-4.97.27-.23.05-.48.09-.71.06-1.13-.13-2.17.23-3.28.24-1.11.01-2.21.12-3.32.2-.39.03-.78.1-1.17.16-.93.15-1.86.29-2.78.45-.11.02-.18.17-.27.25l-.04-.07ZM201.54,5.14c.47.02.95.04,1.42.05.16,0,.31-.01.47-.02.17,0,.48-.25.44-.36-.04-.11-.08-.25-.19-.3-.26-.14-.54-.28-.83-.33-1-.2-2.03-.25-3.06-.2-.15,0-.32.05-.42.13-.15.12-.36.28-.35.42.01.14.23.37.41.4.69.11,1.4.16,2.11.23ZM119.56,3.61c-.01-.06-.03-.13-.04-.2-.31-.01-.61-.03-.92-.03-.07,0-.16.04-.19.09-.07.11.03.2.23.19.31,0,.61-.04.92-.06ZM102.94,4.11c.06-.03.17-.05.18-.08.04-.14-.04-.23-.21-.23-.06,0-.16.04-.18.09-.06.13.02.21.21.23ZM116.32,3.35c-.05.03-.14.05-.15.09-.02.13.08.19.26.16.06,0,.14-.05.15-.09.03-.13-.07-.18-.26-.16Z"/>
      <path class="cls-1" d="M163.24,5.02c.41-.03.95-.08,1.5-.1.14,0,.3.07.42.14.1.05-.21.36-.39.39-.08.01-.15.06-.22.06-1.2-.06-2.35.14-3.52.33-.61.1-1.26.11-1.86-.13-.04-.02-.07-.09-.07-.13,0-.06.01-.14.06-.16.55-.28,1.23-.18,1.82-.31.69-.15,1.38-.26,2.25-.07Z"/>
      <path class="cls-1" d="M167.42,4.7c1.18.04,2.36.1,3.54.12.55,0,1.09-.07,1.64-.11.7-.04,1.41-.09,2.11-.11.1,0,.3.14.29.19-.03.1-.14.21-.26.27-.12.06-.29.1-.43.1-1.65,0-3.31,0-4.96-.01-.31,0-.63.01-.94-.02-.37-.04-.73-.13-1.1-.19.04-.07.08-.15.12-.22Z"/>
      <path class="cls-1" d="M181.52,4.44c.29.02.91.05,1.54.1.07,0,.21.05.21.07,0,.13-.13.17-.32.2-1.3.23-2.61.43-3.96.14-.06-.01-.16-.09-.15-.1.07-.1.13-.24.24-.27.67-.21,1.4-.05,2.44-.13Z"/>
      <path class="cls-1" d="M191.95,4.97c-.35-.19-.73-.18-1.13-.16-1.25.05-2.51.09-3.76.12-.38,0-.77-.02-1.32-.04,2-.42,2-.4,3.5-.37.78.01,1.57-.07,2.35-.11.27-.01.34.12.3.52l.06.04Z"/>
      <path class="cls-1" d="M115.88,4.53c-.07,0-.14-.01-.21-.02.07-.02.15-.05.22-.05.07,0,.14,0,.21.01-.07.02-.15.04-.22.06Z"/>
      <path class="cls-1" d="M194.36,4.95c-.05.04-.09.1-.15.11-.05,0-.16-.05-.16-.08,0-.14.11-.21.28-.19.02,0,.02.1.03.16Z"/>
      <path class="cls-1" d="M129.45,1.42c-.07,0-.15,0-.22,0,.07,0,.13,0,.2-.01,0,0,.02.01.02.01Z"/>
      <path class="cls-1" d="M177.38,4.76s.03.06.04.1c-.06,0-.12.03-.17.02-.02,0-.03-.06-.04-.09.06,0,.11-.02.17-.03Z"/>
      <path class="cls-1" d="M155.48,5.33s-.08-.02-.11-.03c.06.09.08.08.07-.04,0,0,.05.07.05.07Z"/>
      <path class="cls-1" d="M191.89,4.93s.1,0,.15,0c-.02-.1-.05-.09-.09.04,0,0-.06-.04-.06-.04Z"/>
    </g>
  </g>
</svg>