<?xml version="1.0" encoding="UTF-8"?>
<svg id="_レイヤー_2" data-name="レイヤー 2" xmlns="http://www.w3.org/2000/svg" viewBox="0 0 511.41 47.95">
  <defs>
    <style>
      .cls-1 {
        fill: #1a3168;
      }

      .cls-2 {
        fill: #00b8ee;
      }

      .cls-3 {
        fill: #004da1;
      }
    </style>
  </defs>
  <g id="_レイヤー_2-2" data-name="レイヤー 2">
    <g>
      <g>
        <path class="cls-3" d="M20.96,27.16c9.25,14.65,21.21-17.27,21.21-9.03,0,16.25-13.17,29.42-29.42,29.42-8.01,0-1.04-35.05,8.21-20.39"/>
        <path class="cls-2" d="M21.21,20.4C11.96,5.74,0,37.67,0,29.42,0,13.17,13.17,0,29.42,0c8.01,0,1.03,35.06-8.21,20.4"/>
      </g>
      <g>
        <path class="cls-1" d="M55.86,23.13c0-7.91,0-9.38-.1-11.04-.11-1.77-.52-2.6-2.24-2.96-.42-.11-1.31-.16-2.03-.16-.57,0-.89-.1-.89-.47s.36-.47,1.14-.47c2.76,0,6.04.16,7.49.16,2.14,0,5.16-.16,7.55-.16,6.51,0,8.85,2.18,9.68,2.96,1.14,1.09,2.6,3.44,2.6,6.2,0,7.38-5.41,12.59-12.8,12.59-.26,0-.83,0-1.09-.05-.26-.05-.62-.11-.62-.47,0-.42.36-.57,1.46-.57,2.91,0,6.97-3.28,6.97-8.6,0-1.71-.16-5.19-3.07-7.8-1.87-1.72-4.01-2.02-5.21-2.02-.78,0-1.56.04-2.02.2-.26.1-.42.42-.42.99v20.81c0,4.79,0,8.9.26,11.14.16,1.46.47,2.61,2.03,2.82.72.1,1.88.2,2.65.2.57,0,.83.15.83.42,0,.36-.42.52-.99.52-3.44,0-6.72-.16-8.07-.16-1.2,0-4.48.16-6.56.16-.68,0-1.04-.16-1.04-.52,0-.26.21-.42.83-.42.78,0,1.41-.1,1.88-.2,1.04-.21,1.3-1.36,1.51-2.87.26-2.19.26-6.3.26-11.09v-9.15Z"/>
        <path class="cls-1" d="M88.9,26.72c0-6.72,0-7.97-.05-9.37-.11-1.51-.52-1.98-1.98-2.4-.36-.11-1.14-.16-1.82-.16-.46,0-.78-.15-.78-.47s.36-.42,1.04-.42c2.4,0,5.31.11,6.24.11,1.56,0,5.73-.11,7.13-.11,2.91,0,6.25.26,8.69,1.87,1.3.89,3.23,3.13,3.23,6.09,0,3.28-1.88,6.19-6.35,9.78,4.06,4.99,7.29,9.01,10.04,11.76,2.55,2.56,4.16,2.77,4.89,2.92.47.1.73.1,1.09.1s.58.26.58.47c0,.36-.31.47-.89.47h-4.37c-2.55,0-3.8-.26-4.99-.88-1.98-.99-3.7-3.08-6.25-6.5-1.82-2.4-3.74-5.36-4.32-6.04-.26-.26-.52-.3-.83-.3l-4.11-.11c-.21,0-.36.11-.36.37v.62c0,4.12.05,7.55.26,9.42.15,1.3.37,2.13,1.77,2.35.67.09,1.66.15,2.24.15.36,0,.57.26.57.47,0,.31-.36.47-.93.47-2.65,0-6.46-.16-7.13-.16-.88,0-3.79.16-5.62.16-.57,0-.89-.16-.89-.47,0-.21.16-.47.73-.47.68,0,1.2-.05,1.62-.15.94-.21,1.2-1.05,1.35-2.35.21-1.87.21-5.36.21-9.42v-7.8ZM94.73,30.15c0,.46.1.63.41.78.99.31,2.34.41,3.49.41,1.82,0,2.45-.16,3.23-.73,1.4-.99,2.96-2.91,2.96-6.55,0-6.24-4.27-7.85-6.97-7.85-1.14,0-2.23.05-2.71.15-.31.1-.41.26-.41.63v13.16Z"/>
        <path class="cls-1" d="M124.6,26.72c0-6.72,0-7.97-.05-9.37-.11-1.51-.58-2.03-1.57-2.35-.52-.15-1.09-.2-1.66-.2-.47,0-.73-.1-.73-.52,0-.26.37-.36,1.09-.37,1.72,0,4.84.11,6.14.11,1.15,0,4.11-.11,5.88-.11.57,0,.94.11.94.36,0,.42-.26.52-.73.52s-.83.05-1.35.16c-1.25.21-1.62.82-1.72,2.4-.1,1.4-.1,2.65-.1,9.37v7.8c0,4.27,0,7.81.21,9.68.16,1.19.47,1.87,1.82,2.09.63.1,1.67.15,2.34.15.52,0,.73.26.73.47,0,.31-.37.47-.89.47-3.02,0-6.14-.16-7.39-.16-1.04,0-4.17.16-5.99.16-.57,0-.89-.16-.89-.47,0-.21.16-.47.73-.47.68,0,1.2-.05,1.61-.15.94-.21,1.2-.84,1.36-2.14.21-1.82.21-5.36.21-9.63v-7.8Z"/>
        <path class="cls-1" d="M148.65,41.34c.11,3.43.68,4.47,1.56,4.79.78.26,1.66.31,2.39.31.52,0,.78.21.78.47,0,.36-.41.47-1.04.47-2.96,0-5.1-.16-5.93-.16-.42,0-2.6.16-4.95.16-.62,0-1.04-.05-1.04-.47,0-.26.31-.47.73-.47.63,0,1.46-.05,2.08-.2,1.19-.32,1.35-1.51,1.4-5.36l.42-26.22c0-.9.31-1.51.78-1.51.57,0,1.19.68,1.97,1.46.57.57,7.44,7.6,14.1,14.11,3.12,3.07,9.21,9.31,9.89,9.95h.21l-.47-19.68c-.05-2.7-.47-3.48-1.56-3.9-.67-.26-1.77-.26-2.39-.26-.57,0-.73-.21-.73-.47,0-.36.47-.42,1.15-.42,2.39,0,4.83.11,5.82.11.52,0,2.23-.11,4.48-.11.62,0,1.04.06,1.04.42,0,.26-.26.47-.78.47-.47,0-.83,0-1.4.16-1.25.36-1.62,1.14-1.67,3.64l-.52,27.89c0,.99-.37,1.4-.73,1.4-.78,0-1.4-.46-1.87-.93-2.86-2.65-8.58-8.12-13.37-12.75-5-4.78-9.83-10.14-10.71-10.92h-.16l.52,18.06Z"/>
        <path class="cls-1" d="M190.28,43.16c-4.53-3.8-5.73-8.8-5.73-13.06,0-3.02.99-8.22,5.36-12.13,3.33-2.91,7.7-4.68,14.52-4.68,2.86,0,4.58.21,6.67.46,1.71.27,3.22.58,4.58.73.52.05.68.26.68.51,0,.37-.11.89-.21,2.45-.1,1.46-.1,3.9-.16,4.79-.05.63-.21,1.09-.62,1.09-.37,0-.47-.36-.47-.94-.05-1.4-.62-2.96-1.77-4.11-1.56-1.51-4.63-2.6-8.85-2.6s-6.56.72-8.64,2.49c-3.38,2.92-4.22,7.18-4.22,11.5,0,10.52,8.12,15.51,14.26,15.51,4.06,0,6.3-.31,8.12-2.34.78-.89,1.4-2.14,1.56-2.97.11-.68.21-.89.57-.89.31,0,.52.42.52.78,0,.51-.52,4.37-.99,5.88-.21.78-.42.99-1.2,1.3-1.82.73-5.31.99-8.28.99-6.24,0-11.55-1.3-15.71-4.79"/>
        <path class="cls-1" d="M226.24,26.72c0-6.72,0-7.97-.05-9.37-.1-1.51-.57-2.03-1.56-2.35-.52-.15-1.09-.2-1.66-.2-.47,0-.72-.1-.72-.52,0-.26.36-.36,1.09-.37,1.72,0,4.84.11,6.14.11,1.14,0,4.11-.11,5.88-.11.57,0,.94.11.94.36,0,.42-.26.52-.73.52s-.83.05-1.35.16c-1.25.21-1.61.82-1.72,2.4-.11,1.4-.11,2.65-.11,9.37v7.8c0,4.27,0,7.81.21,9.68.16,1.19.47,1.87,1.82,2.09.62.1,1.67.15,2.34.15.52,0,.73.26.73.47,0,.31-.36.47-.88.47-3.02,0-6.14-.16-7.39-.16-1.04,0-4.16.16-5.98.16-.57,0-.89-.16-.89-.47,0-.21.16-.47.72-.47.68,0,1.2-.05,1.62-.15.94-.21,1.2-.84,1.35-2.14.21-1.82.21-5.36.21-9.63v-7.8Z"/>
        <path class="cls-1" d="M247.42,26.72c0-6.72,0-7.97-.05-9.37-.1-1.51-.52-1.98-1.98-2.4-.36-.11-1.15-.16-1.82-.16-.47,0-.78-.15-.78-.47s.37-.42,1.04-.42c2.39,0,5.3.11,6.61.11,1.87,0,5.51-.11,7.59-.11,5.73,0,7.81,1.87,8.54,2.49.99.94,2.29,2.92,2.29,5.32,0,6.24-4.99,10.71-11.5,10.71-.21,0-1.14,0-1.35-.05-.26,0-.57-.16-.57-.46,0-.37.52-.58,1.51-.58,2.55,0,6.14-2.65,6.14-7.18,0-1.45-.15-4.37-2.71-6.56-1.66-1.46-3.53-1.66-4.58-1.66-.68,0-1.56.05-1.98.21-.26.11-.36.36-.36.83v17.53c0,4.06,0,7.55.21,9.47.16,1.25.42,2.08,1.77,2.3.68.1,1.67.15,2.34.15.53,0,.73.26.73.47,0,.31-.37.47-.83.47-3.07,0-6.3-.16-7.49-.16-1.05,0-3.96.16-5.78.16-.57,0-.89-.16-.89-.47,0-.21.15-.47.73-.47.68,0,1.2-.05,1.61-.15.94-.21,1.2-1.05,1.36-2.35.2-1.87.2-5.36.2-9.42v-7.8Z"/>
        <path class="cls-1" d="M280.42,36.23c-.26,0-.32.06-.42.32l-2.44,5.92c-.47,1.1-.68,2.19-.68,2.71,0,.78.42,1.25,1.82,1.25h.67c.58,0,.68.21.68.47,0,.36-.26.47-.73.47-1.51,0-3.64-.16-5.1-.16-.47,0-2.92.16-5.31.16-.58,0-.83-.1-.83-.47,0-.26.15-.47.52-.47.41,0,.94-.05,1.35-.05,2.08-.31,2.86-1.66,3.8-3.91l11.97-27.83c.52-1.25.89-1.77,1.36-1.77.68,0,.89.42,1.35,1.4,1.09,2.45,8.74,20.56,11.66,27.27,1.77,4,3.07,4.58,3.9,4.74.68.1,1.2.15,1.71.15.41,0,.63.15.63.47,0,.36-.26.47-1.98.47-1.61,0-4.94,0-8.79-.1-.83-.05-1.36-.05-1.36-.36,0-.26.11-.42.58-.47.31-.05.62-.47.41-.99l-3.53-8.89c-.11-.27-.26-.32-.47-.32h-10.77ZM290.19,33.79c.21,0,.26-.1.21-.26l-4.32-11.24-.21-.42-.26.42-4.43,11.19c-.1.21,0,.31.16.31h8.85Z"/>
        <path class="cls-1" d="M317.47,34.52c0,5.68,0,8.48.99,9.31.78.68,2.55.94,6.09.94,2.44,0,4.22-.05,5.36-1.24.58-.58,1.04-1.83,1.14-2.66.06-.42.16-.67.52-.67.31,0,.42.47.42.98s-.31,3.8-.67,5.11c-.31.98-.52,1.19-2.92,1.19-3.28,0-5.93-.05-8.22-.16-2.29-.05-4.21-.11-6.09-.11-.52,0-1.51.05-2.61.05-1.09.05-2.24.1-3.17.1-.58,0-.89-.16-.89-.47,0-.21.16-.47.73-.47.68,0,1.19-.05,1.61-.15.94-.21,1.2-1.05,1.35-2.35.21-1.87.21-5.36.21-9.42v-7.8c0-6.72,0-7.97-.05-9.37-.1-1.51-.52-1.98-1.98-2.4-.36-.1-.93-.15-1.51-.15-.52,0-.78-.15-.78-.47s.31-.42.99-.42c2.13,0,5.05.11,6.29.11,1.1,0,4.84-.11,6.61-.11.67,0,.99.11.99.42s-.26.47-.83.47c-.52,0-1.25.05-1.77.15-1.25.21-1.61.83-1.72,2.4-.1,1.4-.1,2.65-.1,9.37v7.8Z"/>
        <path class="cls-1" d="M379.39,28.33c.11,0,.26-.06.26-.31v-.94c0-6.72-.05-8.33-.11-9.73-.1-1.51-.52-1.98-1.97-2.4-.37-.11-1.14-.16-1.77-.16-.51,0-.77-.15-.77-.47s.31-.42.99-.42c2.45,0,5.68.11,6.87.11,1.1,0,4.12-.11,5.88-.11.68,0,.99.11.99.42s-.31.47-.83.47c-.36,0-.78.05-1.35.16-1.2.21-1.56.82-1.67,2.4-.11,1.4-.11,2.65-.11,9.37v7.8c0,4.06,0,7.55.21,9.47.16,1.25.42,2.08,1.82,2.3.63.1,1.62.15,2.34.15.47,0,.72.26.72.47,0,.31-.36.47-.93.47-2.97,0-5.99-.16-7.23-.16-1.04,0-4.27.16-6.04.16-.62,0-.99-.16-.99-.47,0-.21.21-.47.73-.47.73,0,1.25-.05,1.66-.15.94-.21,1.2-1.05,1.35-2.35.21-1.87.21-5.25.21-9.31v-3.39l-.26-.26h-17.28c-.15,0-.31.05-.31.26v3.39c0,4.07.06,7.44.26,9.37.16,1.25.42,2.08,1.77,2.3.62.1,1.67.15,2.34.15.52,0,.73.26.73.47,0,.31-.37.47-.94.47-2.97,0-6.14-.16-7.44-.16-1.04,0-4.06.16-5.88.16-.57,0-.89-.16-.89-.47,0-.21.16-.47.73-.47.68,0,1.2-.05,1.62-.15.93-.21,1.2-1.05,1.35-2.35.21-1.87.21-5.36.21-9.42v-7.8c0-6.72,0-7.97-.05-9.37-.1-1.51-.52-1.98-1.98-2.4-.37-.11-1.15-.16-1.82-.16-.47,0-.78-.15-.78-.47s.37-.42.99-.42c2.45,0,5.47.11,6.72.11,1.09,0,4.26-.11,6.08-.11.62,0,.94.11.94.42s-.26.47-.83.47c-.36,0-.78.05-1.31.16-1.25.21-1.61.82-1.71,2.4-.11,1.4-.11,3.01-.11,9.73v.94c0,.26.16.31.31.31h17.28Z"/>
        <path class="cls-1" d="M395.79,30.61c0-7.54,5.31-17.32,19.2-17.32,11.55,0,18.74,6.4,18.74,16.55s-7.4,18.11-19.21,18.11c-13.32,0-18.73-9.47-18.73-17.33M426.9,31.45c0-9.78-5.88-15.82-13.27-15.82-5.1,0-11.09,2.71-11.09,13.63,0,9.11,5.2,16.29,13.85,16.29,3.22,0,10.51-1.51,10.51-14.1"/>
        <path class="cls-1" d="M445.53,14.07c.1-.73.52-1.15.88-1.15.47,0,.78.21,1.41,1.41l12.28,24.66,12.27-24.97c.36-.73.78-1.1,1.2-1.1.36,0,.89.47,1.04,1.41l4.17,27.32c.42,2.76.83,3.95,2.24,4.37,1.3.36,2.02.41,2.6.41.41,0,.73.15.73.42,0,.37-.52.52-1.2.52-1.14,0-7.65-.21-9.47-.32-1.1-.06-1.35-.26-1.35-.52,0-.21.2-.36.52-.47.26-.1.36-.63.21-1.87l-2.55-19.15h-.16l-9.83,19.78c-1.04,2.08-1.3,2.5-1.83,2.5-.56,0-1.09-.89-1.82-2.24-1.09-2.03-4.73-8.79-5.26-10.04-.36-.83-3.07-6.4-4.58-9.47h-.15l-2.19,17.28c-.1.77-.16,1.35-.16,2.08,0,.83.63,1.14,1.4,1.3.78.15,1.19.2,1.62.2s.73.21.73.42c0,.42-.42.52-1.09.52-1.93,0-4.01-.16-4.84-.16-.88,0-3.07.16-4.53.16-.47,0-.83-.1-.83-.52,0-.21.26-.42.73-.42.37,0,.68,0,1.41-.1,1.25-.15,1.66-1.92,1.87-3.39l4.52-28.88Z"/>
        <path class="cls-1" d="M491.84,26.72c0-6.72,0-7.97-.05-9.37-.11-1.51-.52-1.98-1.98-2.4-.37-.11-1.15-.16-1.83-.16-.47,0-.77-.15-.77-.47s.37-.42,1.04-.42c2.39,0,5.31.11,6.62.11,1.45,0,11.6.05,12.48,0,.84-.05,1.57-.21,1.93-.27.26-.05.51-.2.72-.2.26,0,.31.2.31.42,0,.31-.26.83-.36,2.86-.05.46-.16,2.39-.26,2.91-.05.2-.15.73-.52.73-.31,0-.37-.21-.37-.57,0-.32-.05-1.09-.3-1.62-.38-.78-.74-1.4-3.03-1.61-.78-.1-6.24-.21-7.18-.21-.2,0-.31.15-.31.41v10.93c0,.26.05.46.31.46,1.04,0,6.97,0,8.01-.1,1.1-.1,1.77-.21,2.2-.68.36-.31.51-.57.72-.57s.36.21.36.47-.11.98-.36,3.22c-.11.89-.21,2.66-.21,2.97,0,.37-.05,1-.47,1-.31,0-.42-.16-.42-.37-.05-.46-.05-1.03-.15-1.61-.26-.89-.83-1.56-2.55-1.73-.84-.1-6.04-.21-7.18-.21-.21,0-.26.21-.26.47v3.54c0,1.51-.05,5.26,0,6.55.11,3.02,1.51,3.7,6.2,3.7,1.2,0,3.12-.06,4.32-.58,1.14-.52,1.66-1.45,1.97-3.28.11-.47.21-.67.52-.67.37,0,.42.57.42,1.05,0,.98-.37,4-.62,4.89-.32,1.15-.73,1.15-2.44,1.15-3.44,0-6.19-.05-8.44-.16-2.23-.05-3.95-.11-5.3-.11-.52,0-1.51.06-2.6.06-1.1.05-2.24.1-3.17.1-.58,0-.88-.16-.88-.47,0-.21.16-.47.72-.47.68,0,1.2-.05,1.61-.15.94-.21,1.2-1.05,1.36-2.35.21-1.87.21-5.36.21-9.42v-7.8Z"/>
      </g>
    </g>
  </g>
</svg>