<?xml version="1.0" encoding="UTF-8"?>
<svg id="_レイヤー_2" data-name="レイヤー 2" xmlns="http://www.w3.org/2000/svg" viewBox="0 0 772.71 63.05">
  <defs>
    <style>
      .cls-1 {
        fill: #53aad3;
      }

      .cls-2 {
        fill: #525050;
      }
    </style>
  </defs>
  <g id="_内容" data-name="内容">
    <path class="cls-1" d="M.34,35.48c.61-1.15,1.82-1.82,3.65-2.03s3.98-.54,6.48-.88c2.5-.34,5.74-.81,9.79-1.49,1.49-2.97,2.57-5.47,3.11-7.36.61-1.89,1.42-2.77,2.57-2.5,1.15.2,1.42,1.22.81,2.84-.54,1.69-1.69,3.92-3.44,6.76,9.39-1.22,16.28-1.96,20.8-2.23,4.46-.27,7.23-.41,8.37-.34,1.08,0,1.69.47,1.69,1.28.07.88-.07,1.49-.41,1.96-.34.41-1.08.54-2.16.41-1.08-.14-2.63-.2-4.52-.07-1.89.07-5.2.34-9.86.81-2.77,6.62-5.4,11.69-7.83,15.34,6.35,3.92,11.68,6.62,16.01,8.11.07,1.22-.27,1.96-1.08,2.36-.74.34-1.35.14-1.82-.61-3.85-1.49-8.85-3.65-14.86-6.42-1.76,1.76-4.05,3.58-6.96,5.47-2.9,1.82-4.8,2.91-5.74,3.18-.95.27-1.55.47-2.03.47-.41,0-1.01-.2-1.82-.61-.74-.41-1.01-1.08-.61-1.89.34-.88.88-1.01,1.62-.41,4.59-1.28,8.91-3.92,12.97-7.91-4.39-1.28-7.56-2.23-9.59-2.64-1.96-.47-2.97-1.15-2.9-1.96.07-.81.47-1.49,1.28-2.09.74-.68,1.35-1.49,1.96-2.57.61-1.01,1.62-2.84,2.97-5.34-1.55.41-4.05.68-7.56,1.01-3.44.27-5.67.47-6.69.74-1.01.2-2.09.34-3.17.47-1.35-.14-1.69-.74-1.01-1.89ZM47.27,12.85c-4.32,0-7.9.2-10.74.54-2.77.27-6.21.68-10.33,1.08-4.05.41-10.4,1.96-18.84,4.66.88,3.04,1.15,5,.74,5.81-.95.61-2.03-.68-3.24-3.92-1.55-3.72-2.57-7.5-3.04-11.28-.2-.61-.07-.88.47-.88,2.16.41,3.17,1.15,3.17,2.23s.27,2.57.88,4.59c1.69-.54,4.66-1.28,8.98-2.23,4.32-1.01,7.7-1.82,10.2-2.43-1.01-1.82-2.03-3.24-2.97-4.32-.88-1.08-1.28-2.3-1.15-3.58.47-.34,1.35-.27,2.63.34,1.15,1.76,2.36,3.65,3.65,5.61l.88,1.55c7.7-.81,14.86-1.22,21.61-1.22.88.47,1.55.95,1.82,1.42.34.54.34,1.22.07,2.03-1.22,1.69-2.5,3.45-3.85,5.27-1.35,1.89-3.17,3.78-5.4,5.68-.54.2-1.01.2-1.28-.07-.27-.27-.07-.81.68-1.76,1.76-2.97,3.44-6.01,5.07-9.12ZM16.88,43.93l9.66,3.04c2.57-3.45,4.93-8.04,7.09-13.92l-11.14,1.55c-2.5,4.19-4.39,7.3-5.61,9.32Z"/>
    <path class="cls-1" d="M69.43,10.95c.81.2,1.55,1.28,2.16,3.38,7.5-1.76,13.91-3.11,19.38-4.19-1.08-1.76-1.55-3.31-1.42-4.66.14-1.28.07-2.36-.07-3.18-.2-.81-.07-1.42.34-1.76.41-.41,1.08-.27,1.96.27.95.54,1.42,1.22,1.42,2.03.07.81.14,1.62.14,2.43.07.81.47,2.09,1.35,3.99,7.97-1.28,14.79-2.03,20.46-2.3,3.44.2,5.07,1.62,4.79,4.32-1.69,4.05-4.66,7.43-8.91,10.13-1.35.88-1.89.61-1.49-.88.41-1.49.95-2.64,1.69-3.45.81-.81,1.49-1.35,2.09-1.62.61-.27,1.62-1.82,3.04-4.66-.54-.41-3.85-.34-10,.27-6.15.54-12.36,1.55-18.71,2.97-6.35,1.42-11.41,2.64-15.13,3.72,1.28,4.8,1.55,7.5.95,7.97-.68.54-1.28.34-1.96-.47-.68-.81-1.42-2.57-2.16-5.2-.81-2.7-1.22-5.27-1.22-7.84,0-1.01.41-1.49,1.28-1.28ZM83.41,38.72c0,.81-.61,3.24-1.89,7.3,1.42-.2,2.97.27,4.66,1.35,1.69,1.01,3.31,1.76,4.73,2.09.07-1.35.2-3.11.27-5.27.14-2.23.2-5.27.14-9.32,0-3.99,0-6.96.07-8.85-2.23.54-4.52,1.08-7.02,1.62-2.43.54-4.05.74-4.79.68s-1.22-.14-1.42-.14c-.27-.07-.41-.2-.61-.54-.14-.34-.2-.61-.2-.95.07-.34.2-.68.47-1.08.27-.41.88-.74,1.89-1.01,1.01-.34,8.44-1.96,22.35-4.93,2.84-.88,4.52-.74,4.86.41.07,1.08-.14,1.82-.61,2.23-.47.47-2.16,1.01-5.2,1.62-3.04.68-5.2,1.22-6.62,1.55.27,1.28.41,2.77.47,4.46v5.2c1.35-.27,3.65-.81,6.96-1.62,3.24-.81,4.93-1.22,5-1.22.14,0,.2,0,.2.14.07.14.14.54.2,1.15.07.68.07,1.22,0,1.62-.07.41-1.69.95-4.86,1.69-3.11.74-5,1.28-5.67,1.62-.68.34-1.35.81-1.96,1.28-.07,2.3-.14,4.39-.2,6.35-.07,1.96-.14,3.45-.27,4.53,1.82.88,4.66,2.09,8.51,3.65,3.85,1.49,6.35,2.36,7.5,2.57,1.08.2,2.9.47,5.47.74,2.57.34,4.12.47,4.59.41.54,0,.95,0,1.28.14s.74.34,1.08.54c.41.14.68.41.88.68s.34.54.34.68c.07.14,0,.27-.14.41-.14.07-.47.2-.95.34-.47.14-1.08.27-1.96.34-.81.07-2.36.07-4.59,0-2.23-.07-4.32-.34-6.35-.81-1.96-.47-3.92-1.08-5.88-1.76s-4.46-1.69-7.5-2.91c-3.04-1.28-5-2.09-5.94-2.5-.95-.34-2.43-1.08-4.39-2.16-2.03-1.08-3.92-1.62-5.74-1.62-1.01,2.64-1.96,4.73-2.7,6.28-.81,1.55-1.55,2.97-2.3,4.32s-1.22,2.16-1.35,2.36c-.2.27-.41.47-.68.54-.2.14-.47.2-.74.07-.27-.14-.47-.2-.47-.2-.07,0-.14-.14-.14-.27-.07-.2-.07-.54-.07-.95.07-.47.07-.95.14-1.49.07-.61.88-2.36,2.3-5.34,1.49-2.91,2.43-5,2.77-6.15.41-1.22,1.08-3.72,2.03-7.5,1.01-3.78,1.55-5.74,1.76-5.88.14-.14.34-.2.54-.2s.47.27.74.74c.74,1.15,1.08,2.16,1.01,2.97Z"/>
    <path class="cls-2" d="M173.2,47.01c-4.44,2.22-8.34,3.84-11.58,4.74-3.24.9-5.88,1.08-7.92.54-2.1-.54-3.42-1.26-4.08-2.22-.6-.9-.78-1.98-.6-3.18,1.92-5.94,5.1-10.98,9.6-15.12-.42-1.08-1.38-1.56-2.76-1.44s-3.06.9-4.98,2.34c-1.98,1.38-3.72,2.88-5.34,4.32-1.32.18-1.92-.48-1.74-1.98,1.98-5.64,4.44-11.28,7.26-16.86-1.8.3-3.18.66-4.2,1.14-1.02.54-1.8.72-2.46.54-.6-.18-1.32-.78-2.22-1.74-.12-.72.6-1.26,2.16-1.62,1.56-.36,4.56-.96,9-1.74l1.56-3.54c.24-.9.54-1.2.96-.9.36.24.66.48.9.78.24.24.36,1.14.36,2.58,1.68-.06,3.48-.24,5.4-.66,1.92-.42,3.3-.3,4.08.3.84.6,1.2,1.14,1.08,1.56-.18.42-1.26.66-3.42.72-2.1.12-4.98.6-8.58,1.44-2.64,3.72-4.8,7.98-6.48,12.78,1.56-.72,3-1.32,4.32-1.8,1.32-.54,2.4-.72,3.3-.66.9.06,2.04.9,3.48,2.52,2.4-1.68,4.32-3.06,5.7-4.14,1.38-1.02,2.64-1.26,3.66-.66s1.38,1.32,1.02,2.16c-.42.18-1.38.6-2.82,1.2-1.38.66-3.48,2.22-6.18,4.62-.42,3.42-.66,6.96-.66,10.56-.66.54-1.32.54-2.04,0-.48-1.8-.72-4.02-.72-6.72-3.12,3.24-4.98,5.82-5.58,7.86-.66,1.98-.72,3.42-.18,4.26.48.78,2.4.96,5.58.54,3.24-.48,7.68-2.22,13.44-5.28,1.32.48,1.92,1.44,1.68,2.76Z"/>
    <path class="cls-2" d="M230.13,4.94c-.14.41-.41.74-.81,1.01-.34.27-1.49.81-3.31,1.55-1.82.68-3.92,1.69-6.28,2.97.47.61.88,1.82,1.28,3.85.41,1.96.74,3.72.95,5.27,2.36-.54,4.59-.95,6.82-1.35,2.23-.34,4.79-.61,7.7-.74.88.54,1.22,1.28,1.08,2.09s-.47,1.22-1.01,1.22-1.96.07-4.25.2c-2.23.14-5.61.68-10.06,1.69l.2,7.57c3.11-.61,7.02-1.22,11.75-1.82,4.73-.61,8.58-.95,11.55-1.08,1.22-.07,1.76.68,1.62,2.3-.07,1.62-.41,2.16-1.08,1.76s-3.38-.41-8.1.07c-4.8.41-10,1.22-15.67,2.36.07,8.58,0,14.93-.2,19.05-.14,4.05-.61,6.55-1.28,7.3-.68.81-2.57.47-5.61-1.08-3.11-1.49-5.2-2.57-6.28-3.24-1.01-.74-1.55-1.28-1.42-1.62.14-.41.68-.47,1.76-.14,1.08.27,4.12.95,9.18,2.03.47-5.95.68-13.11.41-21.55-2.57.74-6.75,1.55-12.56,2.36-4.19.61-7.36,1.35-9.66,2.03-2.23.74-3.51.68-3.92-.27-.34-.95-.54-1.76-.61-2.43,0-.68.74-.88,2.23-.74,6.42-1.15,11.82-2.16,16.34-2.97s7.23-1.35,8.1-1.55l-.07-7.5c-1.89.41-3.98.88-6.28,1.42-3.51.68-6.96,1.35-10.4,2.09-1.22-.14-1.96-.74-2.16-1.96-.14-1.15.47-1.55,1.96-1.35,5.47-.95,10.87-2.09,16.14-3.38-.2-2.09-.61-4.26-1.22-6.49-.61-2.16-.88-2.77-.88-1.76-2.3,1.08-4.66,1.96-7.09,2.57-2.43.68-3.92,1.01-4.46,1.01-.61.07-1.08,0-1.55-.14-.47-.14-.81-.34-.95-.47-.2-.14-.2-.34-.07-.54.07-.2.34-.41.68-.68s2.77-1.28,7.16-3.04c4.46-1.82,7.16-2.97,8.17-3.45,1.08-.54,2.3-1.08,3.78-1.76,1.55-.68,3.04-1.49,4.59-2.43,1.55-1.01,2.5-1.49,2.7-1.55.27-.07.47,0,.68.27.2.27.34.74.47,1.35.07.74,0,1.28-.07,1.69Z"/>
    <path class="cls-2" d="M268.21,50.37c-.72-.48-1.38-1.32-1.98-2.4-1.62-12.3.42-24.18,6.12-35.58.54-.36,1.08-.36,1.74-.12.6.24,1.08.78,1.44,1.56-2.4,5.04-4.32,10.8-5.7,17.4-1.38,6.54-1.62,11.82-.66,15.72.36,1.02.9,1.38,1.62,1.02.66-.36,1.14-.42,1.38-.18.3.24.36.72.24,1.44-.06.78-.6,1.32-1.62,1.62-.96.18-1.8.06-2.58-.48ZM304.02,43.11c.24.66-.24,1.32-1.38,2.1-8.76.9-14.7-1.2-17.88-6.36-1.44-1.68-1.92-3.48-1.5-5.4.54-.66,1.02-.72,1.44-.18.42.6.9,1.56,1.38,2.88.54,1.32,1.92,3.06,4.26,5.28,3.6,1.32,7.38,1.62,11.34.72,1.26.06,2.04.36,2.34.96ZM303.78,20.01c.18.96-.54,1.98-2.04,3s-2.58,1.68-3.12,2.04c-.6.3-1.02.42-1.26.24-.66-.84-.66-1.62.12-2.22.78-.6,1.38-1.32,1.8-2.1-.96-.66-2.58-1.02-4.8-1.08-2.22-.12-4.26-.12-6.06,0-1.8.06-2.94-.24-3.36-.9-.42-.72-.54-1.26-.48-1.56.12-.36.42-.54.9-.54.54,0,2.16.06,4.86.18,2.76.12,6.54.42,11.28.78,1.26.48,2.04,1.2,2.16,2.16Z"/>
    <path class="cls-2" d="M325.09,57.3c-.68-1.15-1.62-2.16-2.84-2.91-.61-.81-1.35-1.76-2.09-2.77-.74-.95-.88-2.16-.34-3.58,1.76.88,3.58,2.23,5.47,4.12,1.82,1.89,3.31,3.58,4.46,5.07,1.08,1.49,1.08,2.7-.07,3.58-2.36-1.15-3.92-2.3-4.59-3.51Z"/>
    <path class="cls-1" d="M377.3,29.4c3.24-.27,5.74-.68,7.5-1.15,1.69-.47,2.97-.81,3.78-1.01.81-.14,1.55.27,2.43,1.42.81,1.08.74,1.76-.13,1.96-.95.27-5.07,1.15-12.49,2.57,1.96,6.49,4.46,12.84,7.56,19.05.61,1.01.88,1.89.81,2.64-.14.81-.54,1.15-1.35,1.01-.88-.2-1.55-.81-2.16-1.82-.61-1.08-1.01-2.09-1.22-3.11-2.7-5.88-5.27-11.55-7.7-17.03-6.55,2.03-10.94,3.24-13.24,3.58-2.23.34-3.78.27-4.52-.27-.74-.47-1.01-1.28-.81-2.3,5.67-1.49,11.55-2.84,17.63-4.05-.88-3.31-1.89-6.49-3.17-9.53-4.05.88-8.17,1.76-12.22,2.64-1.49-.61-2.23-1.62-2.23-2.97,0-.61.47-.81,1.42-.74.95.14,5-.61,12.02-2.23-.74-3.78-1.42-7.09-2.16-9.86.61-.81,1.28-1.01,2.09-.41.81.54,1.42,1.49,1.76,2.91.34,1.42,1.08,3.58,2.09,6.49,4.79-.68,9.05-1.49,12.76-2.36.95-.07,1.62.07,2.16.34.54.34.81.74.81,1.28.07.54-.27.95-1.01,1.28-.68.34-1.96.54-3.71.68-1.82.14-5.13.88-10,2.16.88,3.04,1.96,6.01,3.31,8.85Z"/>
    <path class="cls-1" d="M414.92,33.25c-.54-.88-.41-1.55.47-1.96,4.12-1.08,8.1-2.5,11.89-4.32-.95-1.42-1.76-2.7-2.43-3.99-.68-1.28-.81-2.77-.47-4.53,1.55.41,2.57,1.42,3.17,3.04.61,1.55,1.42,2.97,2.43,4.26,6.42-2.5,12.29-4.26,17.69-5.34.88,0,1.55.2,1.89.61.4.41.54,1.01.4,1.89-.88,1.55-1.76,3.51-2.77,5.88-.95,2.3-1.96,5.07-2.84,8.31-.95,1.49-1.76,2.09-2.5,1.76-.74-.34-1.08-1.15-.95-2.43,1.76-3.92,3.24-7.77,4.39-11.55-5.07.54-9.79,1.96-14.25,4.12,3.31,8.38,5.47,17.09,6.62,26.22-1.01.2-1.62-.2-1.89-1.08-2.16-8.31-4.73-16.22-7.83-23.65-3.38,1.69-6.89,3.18-10.6,4.26-1.08-.07-1.89-.61-2.43-1.49Z"/>
    <path class="cls-1" d="M474.77,10.75c.81.27,1.42,1.28,1.89,3.11,0,6.55,0,11.42.07,14.66.07,3.24.2,5.41.27,6.49.13,1.08.07,1.82-.07,2.3-.2.47-.61.68-1.28.68s-1.22-.27-1.55-.88c-.34-.61-.41-2.97-.34-6.96.13-4.05-.14-10.13-.88-18.31.2-1.15.81-1.49,1.89-1.08ZM484.15,49.67c8.58-11.89,11.21-25.2,7.77-40-.07-.47,0-.81.41-.95.34-.2.88-.07,1.42.34.61.41,1.28,1.49,2.03,3.24.74,1.76,1.08,5.88.95,12.43-.14,6.49-1.55,12.5-4.19,17.97-2.63,5.41-4.46,8.78-5.47,10-1.01,1.22-1.76,1.89-2.23,2.03-.54.14-1.15,0-1.76-.41-.68-.34-1.01-.95-1.01-1.82,0-.54.68-1.49,2.09-2.84Z"/>
    <path class="cls-1" d="M527.79,12.85c5.2-.14,13.1-1.01,23.64-2.64,1.55-.27,3.17-.47,5-.74,1.76-.2,3.24.41,4.39,1.82,0,.54-.27,1.01-.74,1.35s-1.82,1.96-4.05,4.93c-2.16,2.97-5,7.3-8.51,12.97-1.22-.27-2.03-.81-2.5-1.62,2.9-5.41,6.21-10.68,9.86-15.95-10.13,1.08-20.13,2.16-30.05,3.31-2.9-.14-4.46-.81-4.52-2.09-.2-.74,2.3-1.22,7.5-1.35ZM533.19,50.14c5.4-7.5,7.77-15.41,7.23-23.72-.81-1.35-1.55-2.43-2.16-3.18-.61-.74-.81-1.49-.61-2.23,2.3.88,4.12,2.64,5.34,5.34,1.22,8.99-.95,17.43-6.48,25.27-.74,1.01-1.55,1.82-2.5,2.43-1.76-.27-2.7-1.15-2.97-2.5.88-.68,1.62-1.15,2.16-1.42Z"/>
    <path class="cls-2" d="M614.06,47.01c-4.44,2.22-8.34,3.84-11.58,4.74-3.24.9-5.88,1.08-7.92.54-2.1-.54-3.42-1.26-4.08-2.22-.6-.9-.78-1.98-.6-3.18,1.92-5.94,5.1-10.98,9.6-15.12-.42-1.08-1.38-1.56-2.76-1.44-1.38.12-3.06.9-4.98,2.34-1.98,1.38-3.72,2.88-5.34,4.32-1.32.18-1.92-.48-1.74-1.98,1.98-5.64,4.44-11.28,7.26-16.86-1.8.3-3.18.66-4.2,1.14-1.02.54-1.8.72-2.46.54-.6-.18-1.32-.78-2.22-1.74-.12-.72.6-1.26,2.16-1.62,1.56-.36,4.56-.96,9-1.74l1.56-3.54c.24-.9.54-1.2.96-.9.36.24.66.48.9.78.24.24.36,1.14.36,2.58,1.68-.06,3.48-.24,5.4-.66,1.92-.42,3.3-.3,4.08.3.84.6,1.2,1.14,1.08,1.56-.18.42-1.26.66-3.42.72-2.1.12-4.98.6-8.58,1.44-2.64,3.72-4.8,7.98-6.48,12.78,1.56-.72,3-1.32,4.32-1.8,1.32-.54,2.4-.72,3.3-.66.9.06,2.04.9,3.48,2.52,2.4-1.68,4.32-3.06,5.7-4.14,1.38-1.02,2.64-1.26,3.66-.66s1.38,1.32,1.02,2.16c-.42.18-1.38.6-2.82,1.2-1.38.66-3.48,2.22-6.18,4.62-.42,3.42-.66,6.96-.66,10.56-.66.54-1.32.54-2.04,0-.48-1.8-.72-4.02-.72-6.72-3.12,3.24-4.98,5.82-5.58,7.86-.66,1.98-.72,3.42-.18,4.26.48.78,2.4.96,5.58.54,3.24-.48,7.68-2.22,13.44-5.28,1.32.48,1.92,1.44,1.68,2.76Z"/>
    <path class="cls-2" d="M668.36,16.83c.95-.2,2.03-.54,3.17-.88.81-1.69,1.22-3.92,1.28-6.69-3.58.2-5.94,0-7.09-.81s-1.35-1.62-.47-2.36c.2-.95.74-1.96,1.55-3.04.88-1.15,1.69-2.09,2.5-3.04.81-.07,1.62.27,2.36.95.41.68.54,1.22.41,1.76-.2.54-1.62,2.03-4.32,4.39,9.45-1.89,14.52-2.77,15.13-2.64.61.2,1.01.54,1.08,1.01.07.47-.07.81-.54,1.08-.41.2-2.84.74-7.09,1.69.27,2.3-.2,4.59-1.42,6.82,1.15,0,2.03.14,2.63.34.61.2.88.88.68,2.03-.2,1.15-.34,2.7-.54,4.53-.2,1.82-.34,3.31-.27,4.32,0,.95.14,1.96.34,2.91.2,1.01.61,1.82,1.15,2.43.54.61,1.28.81,2.23.68,1.01-.14,1.89-.34,2.7-.54.81-.27,1.01-1.01.74-2.23-.27-1.22,0-1.76.81-1.55.88.2,1.62.95,2.43,2.23.74,1.22.95,2.16.61,2.7-.27.54-1.01,1.01-2.23,1.42-1.22.41-2.5.81-3.85,1.15.2.88.07,1.42-.34,1.76-.4.27-2.5.68-6.21,1.15-3.71.47-7.97,1.01-12.9,1.55v2.91c1.55.88,3.65,1.96,6.35,3.24,2.63,1.35,5.4,2.64,8.37,3.99,2.9,1.28,5.2,2.3,6.82,3.11,1.62.81,2.5,1.49,2.57,1.89.13.47.07.74-.07.88-.2.2-.81.14-1.82-.07-2.77-.81-5.74-1.82-8.78-3.04-3.04-1.28-7.5-3.51-13.44-6.69l-.27,7.84c.07,5.27-.2,8.18-.74,8.58-.61.34-1.22.47-2.03.34-.74-.14-1.08-1.15-1.01-2.91.07-1.69.07-3.24,0-4.73-.07-1.42,0-4.12.14-7.97-3.98,3.58-7.43,6.28-10.33,8.11-2.9,1.82-5.34,3.04-7.36,3.58-2.03.61-3.17.68-3.44.2-.27-.47.07-1.01,1.15-1.62,1.08-.61,3.24-1.89,6.55-3.92,3.24-1.96,6.15-3.99,8.51-5.95,2.43-1.96,4.19-4.26,5.47-6.89-6.35.81-10.81,1.49-13.44,1.96-2.57.47-4.39.68-5.4.61-1.01-.07-1.55-.34-1.76-.74-.2-.47-.14-.88.14-1.22.27-.41,1.08-.81,2.36-1.22,1.35-.41,3.17-.74,5.54-1.08s6.42-.95,12.16-1.82c-.14-2.64.34-4.32,1.35-5.14.27-.47.47-1.08.74-1.76.27-.74.54-1.49.81-2.36.27-.81.41-1.69.54-2.64.14-.88.14-1.69.14-2.36,0-.74-.14-1.35-.41-1.82-.27-.54-.47-.95-.54-1.35-.07-.34-.07-.61,0-.74.07-.2.2-.41.34-.61.14-.27,1.08-.47,2.9-.68,1.35-.47,2.5-.81,3.38-1.01ZM641.54,21.9c.34-.27,1.08-.61,2.43-.95,1.28-.27,2.63-.61,4.05-1.01,1.42-.41,3.17-.88,5.27-1.49-1.42-.68-2.36-1.49-2.9-2.36-.54-.95-1.22-2.23-2.03-3.85-2.3-.2-3.98.14-5.2,1.01-1.49-.14-2.63-.41-3.24-.68-.68-.27-.95-.74-.81-1.28.14-.61.54-1.76,1.22-3.51s1.96-3.85,3.78-6.35c.81-.47,1.62-.41,2.3.14.68.61.74,1.22.2,1.82-1.28.95-2.43,3.11-3.44,6.35,9.86-2.03,15.26-2.97,16.28-2.84,1.01.14,1.42.54,1.35,1.15-.07.68-.54,1.08-1.35,1.22s-3.44.81-7.97,1.89c1.55,2.57,2.43,4.39,2.7,5.61.07.34.07.95-.07,1.69,1.49-.2,2.43-.2,2.84.07.4.2.61.54.74.88.07.41.07.81-.07,1.22-.14.34-.95.68-2.43.95-1.49.27-2.84.54-3.92.88.07,2.91.14,4.8.07,5.68,0,.95-.07,2.03-.07,3.31,2.9-1.01,4.73-1.55,5.47-1.76.68-.2,1.15-.27,1.42-.14.27.07.47.2.54.27.13.07.2.2.2.34.07.2-.07.41-.27.61-.2.27-.61.54-1.15.81-.54.27-1.22.61-2.03,1.01-.81.47-2.43,1.22-4.73,2.3-2.3,1.08-3.92,1.76-4.93,1.96-.95.2-1.82.27-2.57.27s-1.28-.07-1.62-.14c-.34-.14-.68-.27-1.01-.47-.27-.2-.47-.34-.47-.54v-.61c.07-.2.27-.41.54-.61.34-.14.68-.34,1.15-.47.4-.14,1.35-.47,2.84-.95,1.42-.47,2.63-.88,3.51-1.15.07-1.82.07-3.38.07-4.66v-4.32c-2.5.61-4.05,1.01-4.52,1.22-.54.2-.95.27-1.35.27-.41-.07-.74-.2-.95-.41-.27-.27-.41-.74-.54-1.35.14-.34.34-.68.68-1.01ZM676.87,34.8c-.47-.61-.88-1.22-1.08-1.62-.2-.47-.47-.95-.61-1.42-.2-.54-.47-1.28-.88-2.36-.88.54-1.55.81-1.89.81-.34-.07-.74-.2-1.15-.41-.34-.27-.81-.47-1.35-.74-.54-.27-1.01-.54-1.35-.95-.41-.34-.68-.68-.95-1.01s-.47-.74-.54-1.22c-.07-.47-.07-.88,0-1.15.07-.27.2-.54.41-.95.47,0,.81,0,1.01.14.27.07.74.47,1.55,1.15.81.74,1.49,1.28,2.03,1.76.61.47,1.35,1.01,2.23,1.62-.07-2.23-.07-3.92.07-5.14.14-1.22.34-2.84.61-4.86-1.69.34-3.11.68-4.39.88-1.22.2-2.23.47-2.9.81-.68.27-1.35.54-2.16.68-.2,4.39-.54,7.23-.88,8.51-.34,1.35-.68,2.23-.95,2.7-.27.47-.61,1.01-1.08,1.62l.13,3.24c4.12-.61,8.85-1.28,14.12-2.09Z"/>
    <path class="cls-2" d="M708.82,34.06c-.27-.61-.14-1.08.47-1.42.61-.41,1.28-.47,2.03-.27,7.83-6.08,13.78-13.58,17.9-22.57.41-.41,1.01-.61,1.76-.61s1.08.81,1.01,2.5c-1.62,3.51-3.71,7.16-6.42,10.95-3.44,4.46-7.23,8.38-11.35,11.96,5.4,4.66,11.68,9.53,18.91,14.53,1.01-.54,1.76-.41,2.23.41.47.88.74,1.69.81,2.43.07.81-.14,1.35-.61,1.55-.47.27-1.28.07-2.5-.54-1.28-.68-5.81-4.12-13.78-10.27l-10.47-8.65Z"/>
    <path class="cls-2" d="M758.93,57.64c-.41-1.01-.74-1.82-1.01-2.3-.47-3.99.88-7.43,3.92-10.34.47-.2,1.08-.07,1.89.27,2.9-.88,5.4.2,7.29,3.24.88,1.28,1.42,2.57,1.62,3.72.14,1.22.07,2.36-.34,3.45-2.77,3.38-6.55,4.66-11.21,3.85-1.01-.2-1.69-.81-2.16-1.89ZM760.69,56.76c3.78.41,7.02-.54,9.66-2.7-1.22-3.65-2.63-5.68-4.32-6.15s-3.04.41-4.12,2.5c-1.62.81-2.03,2.91-1.22,6.35Z"/>
  </g>
</svg>