<?xml version="1.0" encoding="UTF-8"?>
<svg id="_レイヤー_2" data-name="レイヤー 2" xmlns="http://www.w3.org/2000/svg" viewBox="0 0 790.44 61.58">
  <defs>
    <style>
      .cls-1 {
        fill: #53aad3;
      }

      .cls-2 {
        fill: #525050;
      }
    </style>
  </defs>
  <g id="_内容" data-name="内容">
    <path class="cls-1" d="M.47,20.5c2.36-1.15,5.61-2.36,9.79-3.65-.07-5.88-.34-9.32-.68-10.41-.34-.81.07-1.42,1.22-1.76,1.35-.61,2.36,0,3.04,1.89-.74,1.01-.68,3.78.07,8.31,2.63-.68,4.39-1.08,5.13-1.22.81-.2,1.35.07,1.69.68.34.61.61,1.22.74,1.89-1.08.41-3.65,1.28-7.7,2.64-.14,4.39-.14,8.38.07,12.16,4.93-2.5,7.63-3.31,8.1-2.64.47.74-2.3,3.24-8.24,7.5v13.45c-.41,1.89-.41,3.92-.2,6.01.27,2.09-.14,3.92-1.15,5.41-1.55-.2-2.43-.88-2.7-2.09,1.01-6.62,1.35-13.45.95-20.54l-8.1,6.49c-1.49.2-2.3-.47-2.5-1.96,1.76-2.3,5.27-5.34,10.6-9.12-.34-5.27-.47-8.58-.34-9.86.2-1.28,0-2.23-.47-2.91-3.31,1.55-6.08,2.36-8.37,2.5-1.15-1.35-1.42-2.3-.95-2.77ZM57.68,59.28c-4.25-.61-6.82-1.42-7.7-2.3-3.92-1.76-8.04-4.53-12.43-8.24-3.11,3.38-5.61,5.74-7.5,7.09-1.89,1.28-4.79,2.5-8.78,3.72-.68.14-1.08,0-1.15-.47-.07-.47,0-.88.27-1.15,6.82-3.85,11.75-7.57,14.79-11.08-1.42-.81-3.17-2.03-5.2-3.65-2.03-1.55-3.11-2.7-3.24-3.38-.07-.68.07-1.08.54-1.28.41-.2,1.08-.14,1.89.2.81.27,3.17,2.09,7.23,5.27,4.39-4.66,7.77-9.8,10.13-15.27-6.35.27-12.76,2.09-19.25,5.34-.81.68-1.49.47-2.16-.61-.61-1.08-.74-1.69-.27-1.96,2.57-1.69,5.94-2.91,10-3.65-.41-.74-.47-1.49-.34-2.3.2-.74.27-1.69.27-2.7v-4.86c-5.34,1.35-8.51,2.09-9.46,2.3-1.01.2-1.76-.14-2.23-1.01-.54-.95.74-1.82,3.65-2.64,2.97-.81,5.88-1.69,8.64-2.64-.07-3.78-.07-6.76-.07-8.99.07-2.16.34-3.38.95-3.58.61-.2,1.15-.14,1.69.14.54.34.68,4.26.54,11.76,6.01-1.35,9.39-1.82,10.06-1.42.74.41,1.22.88,1.49,1.42.27.54.07.95-.68,1.22-.68.27-1.49.41-2.5.27-.95-.14-3.78.61-8.37,2.3-.07,4.32-.07,7.57-.14,9.59,3.58-.88,7.16-1.28,10.87-1.22.68.14,1.08.54,1.22,1.01.14.54-.07,1.42-.74,2.64-2.77,6.22-6.21,11.82-10.33,16.89,6.15,5.07,12.22,8.78,18.17,11.22.88,1.08.95,1.82.14,2.03Z"/>
    <path class="cls-1" d="M81.86,8.4c-.68,1.35-2.03,3.24-3.92,5.68,2.23,1.22,3.65,1.96,4.32,2.3.61.27.95.61.95,1.08,0,1.01-.34,2.09-1.01,3.31-.95,1.49-1.82,2.64-2.57,3.38-.81.88-1.76,2.03-2.84,3.45.95,1.08,1.42,1.96,1.35,2.64,0,.68.07,3.99.34,9.93.2,5.88.27,10.14.2,12.77-.14,2.57-.41,4.26-.95,5.07-1.15.27-1.89.2-2.23-.14-.34-.41-.47-.88-.47-1.55.07-.61.07-1.42.14-2.36.07-1.01.2-2.57.41-4.73.14-2.16.07-8.31-.2-18.51-4.8,4.73-7.29,7.16-7.56,7.23-.27.14-.61.14-1.15,0-.47-.07-.81-.41-.88-1.08-.14-.68,1.01-2.36,3.31-5,2.36-2.64,3.98-4.59,4.8-5.74.88-1.15,1.55-2.09,2.16-2.84.68-.74,1.28-1.69,1.96-2.7.68-1.08.61-2.43-.2-4.12-2.43,1.76-4.25,3.38-5.54,4.86s-2.16,2.3-2.63,2.43c-.47.14-.88-.07-1.28-.54-.41-.54-.34-1.22.2-2.16.47-.88,1.82-2.57,3.98-5s3.71-4.59,4.8-6.49c1.08-1.82,2.03-3.11,2.84-3.78,1.35.14,1.96,1.01,1.69,2.64ZM88.34,32.46c.47.47.68,1.01.74,1.69.07.68-.27,2.36-.95,4.93-.68,2.64-1.28,4.66-1.76,6.01-.47,1.42-.88,2.36-1.08,2.91-.2.54-.41.95-.68,1.08-.2.2-.54.34-.95.54-.47.14-.68.2-.74.14-.07,0-.14-.07-.34-.14-.14-.07-.27-.2-.34-.34-.07-.14-.14-.34-.14-.74-.07-.34,0-.81.07-1.35.07-.54.41-1.55.95-3.04.61-1.55,1.01-2.77,1.28-3.72.2-.88.54-2.57,1.01-5.07.41-2.5.68-3.78.74-3.92.07-.07.14-.14.2-.2.07,0,.54.2,1.28.61,0,0,.27.2.68.61ZM83.68,20.63c.2-.14.74-.41,1.69-.68s3.31-.81,7.16-1.55c-.07-6.35-.14-10.74-.14-13.04.74-.88,1.42-1.08,1.89-.47.54.54.81,1.89.95,4.05.14,3.18.2,6.15.2,8.85,1.55-.27,3.38-.54,5.47-.88,2.03-.34,3.24-.47,3.51-.47s.47.07.68.2c.14.14.27.27.41.47.07.14.14.41.07.74,0,.27-.07.61-.2,1.01s-1.35.81-3.71,1.28c-2.3.41-4.39.81-6.15,1.08,0,13.65-.07,22.5-.14,26.49-.07,4.05-.14,6.76-.14,8.18s-.47,2.16-1.35,2.43c-.95.27-1.42-.34-1.49-1.89-.07-1.49-.07-3.51,0-6.08.07-2.5.07-7.3.07-14.32v-13.99c-2.3.34-3.92.61-4.8.88s-1.62.47-2.3.61c-.68.14-1.15.2-1.49.2-.41,0-.61,0-.81-.14-.14-.07-.27-.2-.47-.41-.14-.14-.2-.61-.27-1.35.2-.68.61-1.08,1.35-1.22ZM101.78,32.73c.68.88,1.28,1.96,1.89,3.38.61,1.42,1.15,3.24,1.76,5.54.54,2.23.81,3.51.81,3.72,0,.27-.14.47-.34.68-.2.14-.34.2-.47.2-.2,0-.34-.07-.54-.2-.14-.14-.61-.81-1.42-2.03-.74-1.15-1.28-2.16-1.69-2.91-.34-.74-.81-2.03-1.42-3.78-.54-1.76-1.01-3.24-1.42-4.39-.34-1.22-.47-1.82-.47-2.03,0-.14,0-.27.07-.41,0-.14.41-.07,1.22.14.68.54,1.42,1.28,2.03,2.09ZM101.31,4.69s.14.14.27.34c.14.2.47.74.95,1.49.41.74.81,1.49,1.08,2.09.27.61.41,1.15.41,1.62s-.07.81-.14,1.08c-.07.27-.07.41-.07.41,0,0-.14-.07-.34-.07-.27-.07-.47-.14-.81-.27-.34-.14-.61-.34-.88-.61-.27-.34-.54-.61-.88-1.01-.41-.34-.61-.74-.74-1.15s-.27-.74-.34-1.08c-.14-.34-.14-.68.07-1.08.14-.34.27-.68.47-.95.14-.27.41-.54.81-.81.07,0,.14-.07.14,0ZM103.88,23.47c.14-.2.61-.47,1.49-.74.81-.34,1.62-.61,2.36-.74.74-.2,2.5-.68,5.13-1.35,2.7-.68,5.47-1.28,8.24-1.69,2.77-.47,4.32-.74,4.66-.81.34,0,.61,0,.74.07.14.14.27.34.34.61.14.34.14.61.07.81-.07.27-.14.61-.27.95-.07.41-1.15.81-3.24,1.22-2.09.47-4.12.88-6.15,1.35.2.88.41,1.82.61,2.64.2.88.34,4.39.34,10.54s-.07,10.27-.14,12.43c-.14,2.16-.34,4.26-.61,6.35-.34,2.16-.54,3.31-.61,3.51-.07.14-.14.34-.27.41s-.2.14-.2.2c-.07,0-.41-.07-1.01-.27-.68-.2-1.22-.34-1.49-.54-.34-.2-.74-.41-1.15-.61-.34-.14-.68-.41-.95-.74-.2-.41.14-.47,1.15-.27,1.01.14,1.55-1.82,1.82-6.01.2-4.12.27-8.85.14-14.19s-.2-8.58-.2-9.66c0-1.15-.14-2.16-.27-3.18-2.09.54-3.78,1.01-5.13,1.35-1.42.34-2.3.68-2.84.88-.54.27-1.01.27-1.35.14-.34-.2-.61-.34-.81-.41-.14-.07-.27-.2-.41-.47s-.27-.47-.41-.68c.14-.54.27-.95.41-1.08ZM107.52,11.98c.2-.27.54-.61,1.08-.95s1.96-.81,4.39-1.42c2.36-.54,4.46-.95,6.21-1.15,1.69-.2,2.7-.27,2.9-.2.2.07.34.2.41.34.07.14.14.34.2.68.14.34.14.68.07,1.01-.07.34-1.01.68-2.9.88-1.82.27-3.78.68-5.81,1.15-1.96.54-3.31.95-3.92,1.15-.61.2-1.08.34-1.42.34-.34.07-.61,0-.81-.14-.2-.14-.41-.27-.54-.47-.14-.2-.27-.47-.34-.81.14,0,.27-.14.47-.41Z"/>
    <path class="cls-2" d="M173.47,47.02c-4.44,2.22-8.34,3.84-11.58,4.74-3.24.9-5.88,1.08-7.92.54-2.1-.54-3.42-1.26-4.08-2.22-.6-.9-.78-1.98-.6-3.18,1.92-5.94,5.1-10.98,9.6-15.12-.42-1.08-1.38-1.56-2.76-1.44s-3.06.9-4.98,2.34c-1.98,1.38-3.72,2.88-5.34,4.32-1.32.18-1.92-.48-1.74-1.98,1.98-5.64,4.44-11.28,7.26-16.86-1.8.3-3.18.66-4.2,1.14-1.02.54-1.8.72-2.46.54-.6-.18-1.32-.78-2.22-1.74-.12-.72.6-1.26,2.16-1.62,1.56-.36,4.56-.96,9-1.74l1.56-3.54c.24-.9.54-1.2.96-.9.36.24.66.48.9.78.24.24.36,1.14.36,2.58,1.68-.06,3.48-.24,5.4-.66,1.92-.42,3.3-.3,4.08.3.84.6,1.2,1.14,1.08,1.56-.18.42-1.26.66-3.42.72-2.1.12-4.98.6-8.58,1.44-2.64,3.72-4.8,7.98-6.48,12.78,1.56-.72,3-1.32,4.32-1.8,1.32-.54,2.4-.72,3.3-.66.9.06,2.04.9,3.48,2.52,2.4-1.68,4.32-3.06,5.7-4.14,1.38-1.02,2.64-1.26,3.66-.66s1.38,1.32,1.02,2.16c-.42.18-1.38.6-2.82,1.2-1.38.66-3.48,2.22-6.18,4.62-.42,3.42-.66,6.96-.66,10.56-.66.54-1.32.54-2.04,0-.48-1.8-.72-4.02-.72-6.72-3.12,3.24-4.98,5.82-5.58,7.86-.66,1.98-.72,3.42-.18,4.26.48.78,2.4.96,5.58.54,3.24-.48,7.68-2.22,13.44-5.28,1.32.48,1.92,1.44,1.68,2.76Z"/>
    <path class="cls-2" d="M215.96,13.33c1.35.27,1.89,1.55,1.62,3.85l4.52-1.01c.54,0,.95.54,1.28,1.55-1.22,1.15-2.97,1.89-5.34,2.09l.14,4.26c.81.07,1.69.27,2.63.74,1.01.41,1.42.95,1.35,1.69-.07.74-1.28.88-3.65.27-.07,1.69-.07,2.97,0,3.78.07.81,0,1.89-.2,3.18.27-.61,0-.47-.68.41-.54,0-1.01-.14-1.42-.41-.54-.41-.88-.81-.95-1.28,0-.41-.07-2.16-.07-5.14l-5.27,3.65c-.81.95-1.55,1.42-2.16,1.49-.68.14-1.01-.2-1.01-.81,0-.68.95-1.89,2.84-3.58,1.96-1.69,3.78-4.26,5.54-7.77-1.49.41-2.7.68-3.58.81-.95.14-1.55.27-1.82.27-.68-.14-.95-.68-.81-1.69.74-.61,1.49-1.01,2.09-1.15.74-.14,2.03-.41,3.78-.81-.27-2.3,0-3.72.61-4.26-2.77.47-5.07.88-6.89,1.28.07,1.22,0,3.45-.34,6.62-.81,3.18-1.55,5.74-2.3,7.63l-5.88,16.15-5.13,10.61c-.81.47-1.49.54-2.09.14-.54-.47-.81-.95-.88-1.55,0-.61.14-1.28.54-2.03,4.86-8.51,8.91-18.58,12.09-30.13.41-2.7.47-4.86.2-6.62-1.35.34-2.23.34-2.7.07s-.88-.74-1.08-1.55c-.2-.61.14-1.28.88-2.03,1.82.41,4.12.2,6.89-.54,2.77-.81,6.96-1.42,12.56-1.96-1.35-1.15-2.57-2.16-3.65-2.97-1.15-.88-1.96-1.89-2.43-3.04.2-.68.61-1.01,1.08-1.22.47-.2,1.08,0,1.82.61,1.76.74,3.85,2.7,6.15,5.95,9.79-1.28,14.93-1.89,15.47-1.76.54.07,1.01.34,1.49.74.47.41.74.74.68,1.01,0,.27-.34.68-1.08,1.22-.68.61-1.28.61-1.82.07l-5.88.54.27,4.46c3.98-.61,6.28-.68,6.75-.2.54.47.61.95.34,1.42-.34.41-2.57.95-6.69,1.49l.34,4.05c.74,0,1.62.27,2.57.81.95.54,1.96,1.08,3.11,1.69,1.15.54,2.23,1.49,3.38,2.64,1.08,1.15,1.08,1.69.14,1.69-1.01-.07-2.03-.34-3.04-.95-1.01-.54-1.96-1.08-2.97-1.69-1.01-.61-2.09-1.15-3.17-1.62.68,4.26.68,6.96-.07,8.11-.47.07-1.15.07-1.96,0-.54-.88-.88-1.76-.88-2.43-.07-.74-.07-1.35,0-1.82v-4.46c-1.49,2.7-2.57,4.32-3.38,4.86-.74.54-1.42,1.15-1.96,1.82-.61.61-1.28.74-2.03.27-.74-.41-.95-1.01-.41-1.82l4.25-4.39c1.28-2.03,2.43-4.05,3.44-6.22-3.44,1.15-5.67,1.42-6.69,1.01-.2-.41-.27-.95-.2-1.55.47-.68,1.01-1.08,1.55-1.22.74-.14,2.43-.34,4.86-.61-.14-2.16-.14-3.85.07-5.07l-7.63.88c-2.36.54-4.8,1.08-7.16,1.49ZM238.32,33.74c1.15,0,1.82.27,2.09.74.27.54.2,1.01-.2,1.62-.41.54-1.55.81-3.44.88-1.82,0-4.59.27-8.17.81-3.58.47-6.48.95-8.78,1.42.07.74.07,1.28,0,1.69-.07.34-.27.81-.61,1.28-.34.54-.68.95-.88,1.28-.27.41-.81,1.08-1.62,2.16.68.41,1.22.74,1.62,1.01,1.22,0,2.3-.14,3.17-.41,3.51-.41,5.88-.88,7.16-1.28,1.28-.47,3.31-.81,6.21-1.01,2.63-.14,3.78,1.01,3.44,3.45-.27,2.43-.74,4.59-1.28,6.42-.61,1.76-.95,3.04-1.01,3.72-.14.68-.34,1.22-.61,1.69-.54.14-1.01.2-1.42.27h-1.49c-.54-.07-1.28-.14-2.09-.27-.88-.07-1.49-.14-1.82-.07-.34.07-1.62.41-3.71,1.01-2.09.61-4.19,1.08-6.35,1.42-1.28-.81-2.03-2.03-2.3-3.65-.34-1.62-.54-2.97-.68-4.12-.14-1.08-.47-2.5-.95-4.12-1.15,2.09-2.03,3.58-2.63,4.53-.61.95-1.22,1.82-1.82,2.57-.61.81-1.15,1.35-1.62,1.76-.41.34-.95.61-1.42.68-.54.07-1.01.14-1.55.07-.54,0-.95-.07-1.22-.14-.27-.07-.41-.07-.41-.07v-.2c0-.14.14-.34.34-.61.2-.34.74-.88,1.62-1.76.95-.81,1.69-1.62,2.3-2.3.61-.68,1.35-1.69,2.23-3.11.81-1.42,1.49-2.57,2.03-3.45.47-.88,1.96-3.51,4.32-7.97-3.58.81-5.88,1.35-7.02,1.69-1.08.27-1.82.47-2.3.54-.47.07-.88-.2-1.28-.81-.41-.61-.68-1.08-.81-1.42-.07-.34.47-.74,1.69-1.15,2.23-.27,4.79-.74,7.7-1.28s4.86-.88,5.74-1.08c4.12-.81,8.64-1.49,13.51-2.03,1.82-.27,3.24-.34,4.32-.41ZM228.19,47.86c-.95.27-1.76.61-2.43.88-.68.2-1.69.47-3.04.74-1.35.2-2.84.34-4.66.34,0,3.24.27,6.15.95,8.72,1.96-.54,4.05-1.01,6.35-1.42,2.36-.41,4.86-.81,7.56-1.22,1.55-2.97,2.43-5.88,2.57-8.78l-1.55-.47c-2.84.47-4.8.88-5.74,1.22Z"/>
    <path class="cls-2" d="M266.55,29.41c-.34-.34-.34-.95,0-1.62.34-.68,1.08-1.15,2.36-1.42s3.17-.81,5.67-1.69c2.5-.95,5.81-2.03,9.86-3.24-.47-1.96-1.28-3.65-2.43-5-4.32,1.01-8.44,1.62-12.49,1.89-1.15-.47-1.89-1.15-2.36-2.03.2-.81.74-1.22,1.62-1.28,3.31.14,7.02-.27,11.14-1.35-1.01-1.82-1.96-3.11-2.9-3.78-1.01-.61-.95-1.49.2-2.64,1.08.34,2.09,1.08,2.9,2.16.81,1.15,1.76,2.3,2.84,3.45,3.92-1.42,7.5-2.43,10.74-3.11,1.42,0,2.23.34,2.36,1.08.14.68.07,1.15-.2,1.35-.27.2-1.35.54-3.17.95-1.82.41-4.46,1.01-7.83,1.96l2.97,5.14c2.16-.41,4.19-.88,6.01-1.42,1.82-.61,2.97-.27,3.38.95,0,.88-.41,1.42-1.22,1.62-.81.27-1.76.54-2.97.88-1.15.34-2.57.81-4.32,1.42,1.49,3.51,2.57,6.08,3.24,7.7.68,1.69.88,3.24.68,4.66-.27,1.49-.74,2.5-1.49,3.04-.74.54-2.23.95-4.59,1.08-1.15-.27-1.82-.61-2.09-1.15-.27-.54-.41-.95-.41-1.35,0-.34.68-.61,2.09-.74,1.35-.2,2.36-.61,2.84-1.28.27-1.28,0-2.84-.68-4.8-.74-1.96-1.55-3.99-2.5-6.08-6.08,1.69-11.89,3.58-17.36,5.54-.95-.2-1.55-.47-1.89-.88ZM268.44,42.79c.13-2.23.74-3.72,1.76-4.39,1.01-.74,1.82-.95,2.43-.68s.74.81.41,1.49c-2.57,4.32-2.57,8.65.07,12.91,2.97,1.15,5.94,1.15,8.85.07.88-.07,1.28.14,1.22.74-.07.54-.27.95-.54,1.22s-1.42.68-3.38,1.08-4.25,0-6.96-1.22c-3.65-3.11-5-6.82-3.85-11.22Z"/>
    <path class="cls-2" d="M323.02,57.32c-.68-1.15-1.62-2.16-2.84-2.91-.61-.81-1.35-1.76-2.09-2.77-.74-.95-.88-2.16-.34-3.58,1.76.88,3.58,2.23,5.47,4.12,1.82,1.89,3.31,3.58,4.46,5.07,1.08,1.49,1.08,2.7-.07,3.58-2.36-1.15-3.92-2.3-4.59-3.51Z"/>
    <path class="cls-1" d="M351.45,26.17c11.28-1.76,22.76-3.58,34.44-5.47.27-.68.81-.95,1.69-.68,1.96-.07,2.84.61,2.63,1.89-.2,1.35-2.03,2.16-5.61,2.43-3.58.34-7.23.95-11.08,1.82.68,3.04.88,6.49.54,10.34-1.35,7.57-3.31,12.57-5.88,15.07s-4.12,3.58-4.59,3.31c-.54-.27-.95-.81-1.15-1.62-.2-.74.14-1.35,1.01-1.76.81-.47,1.49-1.08,2.03-1.89,4.79-6.82,6.28-14.46,4.52-22.84-.88,0-2.63.2-5.34.68-2.7.41-6.48,1.08-11.48,2.09-1.55-1.15-2.16-2.3-1.76-3.38ZM357.06,11.51c.07-1.01,2.09-1.62,5.94-1.69,3.92-.14,7.63-.47,11.28-1.01,3.58-.54,6.01-.88,7.23-.95,1.22-.07,1.96.27,2.3,1.08.41.74.2,1.49-.54,2.09-1.42.2-4.12.54-8.04.95-3.92.34-8.85.74-14.93,1.01-2.23.07-3.31-.41-3.24-1.49ZM388.06,4.55c.34-.2.88-.2,1.55.14.68.27,1.15,1.15,1.35,2.64.2,1.49.95,3.04,2.23,4.66,1.15,1.15,1.08,2.16-.2,3.11-1.82-.74-2.97-1.55-3.51-2.57-.47-.95-1.08-2.97-1.69-6.01-.2-1.08-.07-1.76.27-1.96ZM397.18.5c.61.54,1.08,1.76,1.42,3.72.34,1.96.95,3.51,1.76,4.73.81,1.22.95,1.96.41,2.23-.47.27-1.08.14-1.69-.41-3.17-2.84-4.46-6.35-3.92-10.68.74-.2,1.35-.07,2.03.41Z"/>
    <path class="cls-1" d="M416.5,17.86c1.08.14,2.97.14,5.74,0-.27-3.11-.41-5.41-.41-6.96.95-.41,1.96.14,2.9,1.49.2,1.89.47,3.78.88,5.74,6.55-.68,11.95-.95,16.14-.81.07-2.36-.2-4.19-.88-5.61s-1.01-2.36-.88-2.91c.13-.54.74-.74,1.89-.54,1.08.2,2.23,2.16,3.44,5.95v2.91c4.25-.88,7.09-1.15,8.44-.88,1.35.2,2.16.61,2.57,1.15.34.47.4.95.27,1.28-.14.34-1.08.61-2.77.61-1.69.07-4.46.27-8.37.61-1.62,11.35-4.79,22.43-9.46,33.11-.61,1.15-1.55,1.82-2.84,1.96-1.22.14-1.76-.2-1.55-1.01,5.07-10.68,8.44-21.89,10.2-33.72-6.48,0-11.89.47-16.21,1.35,1.01,3.78,2.09,7.5,3.38,11.28,1.42,0,2.23.34,2.57,1.15.34.81.34,1.49,0,1.96-.27.41-1.01.61-2.16.47-2.57-1.69-4.19-3.92-5-6.69-.74-2.7-1.22-5.41-1.49-8.18-1.76-.41-3.65-.47-5.67-.27-2.03.2-3.04-.47-3.04-1.89.47-1.15,1.28-1.69,2.3-1.55ZM453.24,10.83c-.61-1.42-1.08-2.97-1.35-4.73-.14-1.08-.07-1.69.27-1.96.34-.2.88-.14,1.55.14s1.15,1.15,1.35,2.64c.2,1.55.95,3.04,2.23,4.66,1.01,1.15,1.28,1.89.81,2.23-.41.41-1.15.47-2.16.2-1.22-.68-2.09-1.69-2.7-3.18ZM462.56.7c.61.47,1.01,1.76,1.28,3.65.34,1.96.81,3.58,1.62,4.8.74,1.28.88,2.03.41,2.3-.54.27-1.08.07-1.76-.47-3.04-2.84-4.19-6.42-3.51-10.74.74-.2,1.35-.07,1.96.47Z"/>
    <path class="cls-1" d="M501.26,8.33c.81.07,1.35.34,1.76.81.34.47.54,1.22.54,2.16-3.98,5.2-6.96,9.05-8.98,11.62.95,1.49,1.28,2.84,1.15,3.99.13,9.05,0,18.24-.54,27.7-.2.14-.88.14-1.96-.07s-1.55-1.22-1.42-3.11c.07-1.89.13-3.31.13-4.39.47-7.57.61-15.34.34-23.31-5.07,6.15-9.66,10.68-13.64,13.65-.61.2-1.28.14-1.96-.27-.74-.41-1.08-.88-1.08-1.42s.27-.95.88-1.08c4.66-3.51,11.08-9.8,19.25-18.92l5.54-7.36Z"/>
    <path class="cls-1" d="M562.79,25.43c.47.34.68.95.54,1.89-.07.95-1.49,2.91-4.25,5.95-7.16,7.97-15.74,13.58-25.8,16.76-1.35.14-2.5,0-3.51-.34-.95-.41-1.69-1.01-2.3-1.96-.54-.88-.61-1.69-.13-2.5,2.43.61,5.2.54,8.31-.14,10.47-4.12,18.91-10.54,25.26-19.39.81-.47,1.42-.61,1.89-.27ZM537.53,20.02c-1.96-1.22-3.98-2.23-6.08-2.91-2.09-1.01-2.77-2.3-2.09-4.05,4.73,1.08,8.44,3.24,11.14,6.42,1.35,1.55,1.82,2.64,1.42,3.11-.47.54-.88.74-1.42.61-.47-.14-1.15-.74-2.03-1.76l-.95-1.42Z"/>
    <path class="cls-2" d="M581.43,24.47c-.66-.24-1.14-.66-1.38-1.2-.3-.48-.3-.96-.12-1.32.42-.54,1.02-.78,1.74-.72.72.12,1.56.06,2.52-.12,9.6-2.64,18.83-5.76,27.65-9.36,1.14,0,1.74.36,1.86,1.08.12.72-.06,1.38-.48,1.86-.36.48-.78.84-1.26,1.08-5.7,4.68-9.6,9.96-11.7,15.78-2.04,5.82-2.52,9.78-1.32,11.88,1.14,2.1,1.92,3.42,2.28,3.9.36.54.78.66,1.38.42.6-.3,1.14-.3,1.68,0,.6.24.36,1.26-.54,3.06-1.44.24-3.3-.6-5.58-2.7-2.28-2.04-2.94-6.3-2.04-12.78.6-4.08,1.8-7.32,3.6-9.84,1.74-2.52,3.06-4.14,3.9-4.86.78-.66,1.2-1.56,1.2-2.76-7.56,2.04-14.82,4.26-21.77,6.72-.42.24-.96.18-1.62-.12ZM612.14,21.77c-.12-.96-.06-1.56.24-1.74s.78-.18,1.38.12c.6.24,1.02.96,1.2,2.1.18,1.14.78,2.4,1.86,3.84,1.14,1.38,1.08,2.46-.12,3.24-1.08-.06-2.34-1.38-3.6-3.78-.42-1.26-.72-2.58-.96-3.78ZM621.85,16.43c.6.48,1.02,1.56,1.32,3.3.3,1.8.84,3.18,1.56,4.26.72,1.02.84,1.68.36,1.92-.48.3-.96.18-1.5-.3-2.82-2.52-3.96-5.64-3.48-9.48.66-.24,1.2-.12,1.74.3Z"/>
    <path class="cls-2" d="M636.92,19.96c2.3-1.08,5.47-2.23,9.52-3.45-.07-5.68-.34-9.05-.68-10.07-.34-.74.07-1.28,1.15-1.62,1.35-.61,2.3,0,2.9,1.82-.68.95-.61,3.65.07,8.04,2.57-.74,4.25-1.15,5-1.28.74-.2,1.28.07,1.69.68.34.61.54,1.22.68,1.82-1.01.41-3.51,1.22-7.5,2.5-.14,4.26-.14,8.18.07,11.76,4.86-2.3,7.5-3.18,7.9-2.43.41.68-2.3,3.04-8.04,7.16v12.97c-.34,1.82-.41,3.78-.14,5.81.2,2.03-.14,3.72-1.15,5.14-1.42-.2-2.3-.81-2.63-1.96,1.01-6.35,1.28-12.97.81-19.8l-7.7,6.22c-1.49.2-2.3-.41-2.43-1.89,1.69-2.16,5.07-5.14,10.27-8.78-.27-5.07-.41-8.24-.27-9.53.13-1.22,0-2.16-.47-2.77-3.24,1.42-5.94,2.23-8.17,2.43-1.15-1.35-1.42-2.23-.88-2.77ZM654.42,43.47c0-.2,0-.41.07-.61.07-.2.34-.54.88-1.08.54-.54,1.89-1.76,4.12-3.65,2.23-1.96,3.51-2.91,3.78-3.04.27-.14.47-.14.68-.14.2.07.27.2.34.41.07.2,0,.34-.07.54s-.34.61-.68,1.28c-.34.61-1.15,1.76-2.36,3.38-1.28,1.62-2.16,2.57-2.57,2.97-.47.34-.88.68-1.28.88-.34.2-.74.34-1.08.41s-.81,0-1.28-.2c-.27-.54-.47-.95-.54-1.15ZM658.26,21.78c.2.07.68.34,1.55.74.88.41,1.55.74,2.16,1.01.54.34,1.01.68,1.35,1.08.34.41.54.74.68,1.01.07.27.14.41.07.47,0,.07-.07.14-.27.27-.2.14-.41.2-.74.27-.27.07-.68.07-1.08,0-.41,0-.88-.14-1.35-.27-.47-.14-.95-.34-1.35-.47-.41-.2-.74-.47-1.01-.74-.34-.34-.54-.68-.74-1.08-.14-.41-.27-.81-.27-1.15s.13-.68.27-1.01c.34-.2.54-.27.74-.14ZM668.94,10.02c.13.2.27.61.47,1.08.14.47.27,1.08.34,1.69.07.68.14,2.57.2,5.61.07,3.11.07,5.54-.07,7.36-.07,1.82-.27,3.85-.54,6.08-.27,2.23-.61,4.66-1.08,7.3-.47,2.7-.95,4.86-1.42,6.62s-1.01,3.24-1.62,4.53c-.61,1.28-1.15,2.43-1.69,3.45-.54,1.01-1.22,1.89-1.89,2.64-.74.81-1.35,1.42-1.89,1.82-.61.47-1.01.68-1.28.68-.27.07-.41.07-.41.07,0,0,0-.14.07-.34.07-.2.27-.74.61-1.55.34-.81.88-1.96,1.62-3.51.74-1.49,1.35-2.91,1.89-4.26.54-1.35,1.08-2.91,1.55-4.73s.95-3.92,1.42-6.28c.47-2.3.81-4.73,1.01-7.23.2-2.43.34-4.8.54-6.96s.2-4.05.13-5.74c0-1.62-.07-2.97-.13-3.92-.07-.95-.14-1.76-.07-2.5,0-.74.07-1.22.14-1.49.07-.34.2-.54.34-.61.2-.14.4-.27.74-.41.47.14.81.34,1.01.61ZM687.71,20.23c-.14.47-.68,1.49-1.69,3.18-1.01,1.62-1.89,2.91-2.7,3.99-.81,1.01-1.35,1.69-1.62,1.96-.27.34-.47.54-.68.61s-.34.07-.54,0-.61-.34-1.15-.81c-.07,2.16-.14,4.12-.14,5.88.95,0,1.82,0,2.63.14.74.14,1.49.34,2.23.61.68.27,1.89.95,3.58,1.96,1.69,1.01,2.63,1.62,2.77,1.82.14.14.27.41.27.68,0,.2-.07.47-.2.61-.13.2-.27.34-.47.34-.13.07-.81-.07-2.03-.34-1.22-.27-2.09-.47-2.7-.74-.54-.27-1.28-.68-2.23-1.22s-2.3-1.15-3.92-1.89c-.2,9.05.14,14.53,1.01,16.28.81,1.76,2.9,2.36,6.15,1.89,3.17-.54,5.34-1.42,6.42-2.77.27-.34.47-.68.47-.88,0-.27.07-.54.07-.74s.07-.27.34-.27c.2.07.68.34,1.49.88.88.47,1.35.95,1.42,1.35.14.41.2.74.07,1.08-.14.27-.34.61-.61.95-.27.34-.95.74-2.03,1.28s-3.44,1.22-7.16,2.03c-3.65.81-6.35.61-8.04-.54-1.76-1.15-2.7-4.46-2.84-9.86-.2-5.34.14-18.24.88-38.65.27-.95.47-1.55.74-1.89.27-.27.61-.41,1.01-.41.47,0,.74.34.88.88.14.61.27,2.5.27,5.81s-.07,7.7-.2,13.18c1.69-2.03,2.7-3.38,3.11-3.92.34-.61.95-1.69,1.69-3.31.81-1.62,1.22-2.43,1.22-2.43,0,0,.07,0,.2.07.14,0,.47.34,1.01.88.81,1.08,1.15,1.89,1.01,2.36Z"/>
    <path class="cls-2" d="M715,48.27c-2.16-.27-3.71-1.22-4.52-2.97-1.22-6.08.74-10.88,6.01-14.46,1.55-1.82,3.51-3.04,5.94-3.58.74-3.45,1.08-6.28.81-8.51-2.57.2-4.79.27-6.69.34-2.7.47-4.05-.27-4.05-2.36.54-.61,1.55-.88,3.11-.74,1.49.07,4.05-.07,7.63-.47,0-1.15-.07-2.57-.27-4.26-.2-1.69.14-2.7.88-3.11,1.15-.07,1.89.07,2.16.54.27.41.54,2.64.68,6.49,3.17-.74,6.42-1.22,9.79-1.55.41.2.81.61,1.15,1.22.34.54.41.95.13,1.15-.2.2-1.35.54-3.51,1.01-2.16.41-4.46.74-7.02.95-.2.68-.34,1.82-.54,3.51s-.61,3.92-1.08,6.76c1.69,6.28,2.9,12.43,3.58,18.38,1.42,2.03,2.36,3.51,2.9,4.59,4.52,1.28,8.98.34,13.3-2.7.41-.54.74-1.08,1.01-1.69.2-.68.68-.95,1.35-.81.95,0,1.76.61,2.43,1.82-3.44,4.93-8.1,7.36-14.05,7.36-4.39-.2-7.63-2.23-9.66-6.01-1.49-4.26-2.3-8.65-2.3-13.24-1.96,5.41-5,9.53-9.19,12.36ZM713.11,42.66c0,1.01.47,1.76,1.35,2.3,3.71-3.99,6.21-8.78,7.43-14.39-3.71,2.77-6.55,6.08-8.51,10-.2.41-.27,1.15-.27,2.09ZM756.27,34.89c-.61.14-1.28-.07-1.96-.68-3.51-5.07-6.55-9.86-8.91-14.46,0-1.28.41-1.82,1.35-1.69.88.14,1.55.68,2.03,1.49,2.7,4.05,5.54,8.58,8.58,13.65-.07,1.01-.41,1.55-1.08,1.69Z"/>
    <path class="cls-2" d="M776.67,57.66c-.41-1.01-.74-1.82-1.01-2.3-.47-3.99.88-7.43,3.92-10.34.47-.2,1.08-.07,1.89.27,2.9-.88,5.4.2,7.29,3.24.88,1.28,1.42,2.57,1.62,3.72.14,1.22.07,2.36-.34,3.45-2.77,3.38-6.55,4.66-11.21,3.85-1.01-.2-1.69-.81-2.16-1.89ZM778.42,56.78c3.78.41,7.02-.54,9.66-2.7-1.22-3.65-2.63-5.68-4.32-6.15s-3.04.41-4.12,2.5c-1.62.81-2.03,2.91-1.22,6.35Z"/>
  </g>
</svg>