<?xml version="1.0" encoding="UTF-8"?>
<svg id="_レイヤー_2" data-name="レイヤー 2" xmlns="http://www.w3.org/2000/svg" viewBox="0 0 49.13 83.98">
  <g id="Elements">
    <path d="M34.43,76.94c-.84.6-1.13.89-2.11.96-.79.06-1.61-.17-2.32-.04-.59.11-1.04.16-1.67.21-.7.06-1.09.46-1.77.58-.54.1-1.1-.17-1.64-.08-.65.11-1.3.56-1.94.76-.68.21-1.39.33-2.08.52-1.18.33-1.93.25-2.21,1.44-.43,1.81,1.19,2.71,2.85,2.69.94,0,1.36-.36,2.33-.35,1.17.01,1.75.18,2.88-.23.88-.32,1.64-.68,2.56-.66.87.02,1.43.23,2.2.05.89-.21,1.18-.39,2.26-.19.49.09,1.02.3,1.52.24.65-.08.99-.47,1.69-.54.74-.07,1.44.3,2.18.19.92-.13,1.78-.73,2.69-.9.84-.15,1.65.32,2.48.23.83-.09,1.98-.71,2.72-1.1,3.41-1.78,1.75-4.97,1.25-7.98-.27-1.61-.8-3.6-1.62-5.01-.14-.25-.79-.96-.82-1.13-.04-.25.24-.55.21-.81-.11-.99-.42-1.83-.72-2.82-.47-1.56-1.43-3.65-1.51-5.19-.05-.96.27-1.51.04-2.47-.28-1.2-.74-2.39-1.1-3.57-.38-1.23-.26-1.91-1.51-2.17-.85-.18-.86-.13-1.37.43-.17.19-.47.9-.62,1.13-.08,0-.15-.01-.23-.02-.39-.1-.51.13-.36.71-.2.5-.08.99-.02,1.43.04.29.44.52.49.8.07.41-.22,1.09-.26,1.52-.09,1.08.39,1.64.34,2.71-.04.9-.44,1.75-.27,2.63.16.83.66,1.68.88,2.51.18.72.74,1.6.86,2.27.12.68-.16,1.48.04,2.27.2.82.48,1.7.76,2.5.29.85,1.21,1.77,1.4,2.54.5,2.06-.96,2.33-2.29,1.33-.73-.54-1.38-1.18-2.22-1.46-.36-.12-.77-.07-1.13-.19-.7-.25-.72-.42-1.28-.98-1.32-1.31-2.75-2.31-4.26-3.4-.72-.52-2.08-1.18-2.59-1.91-.1-.14.22-.58.12-.71-.2-.26-.54-.42-.89-.73-1.22-1.05-2.18-1.67-3.13-3.05-1.2-1.74-2.71-3.08-4.01-4.73-1.09-1.38-1.84-2.63-2.52-4.21-.65-1.52-1.81-2.74-2.75-4.07-.93-1.33-1.05-2.6-1.99-3.84-.52-.69-1.31-1.44-1.69-2.23-.37-.78-.34-1.77-.63-2.59-.6-1.68-2.21-2.81-2.76-4.54-.56-1.77-1.01-3.62-1.55-5.41-.26-.86-.48-1.55-.91-2.33-.09-.16-.62-.48-.68-.71-.11-.38.25-.96.23-1.35-.04-1.01-.68-1.95-.9-2.94-.24-1.08.17-2.03,0-3.09-.14-.88-.76-1.69-.91-2.59-.15-.87-.08-1.61-.28-2.4-.31-1.23-.08-2.16.15-3.53.09-.54.34-1.19.29-1.73-.08-.83-.34-.46-.61-1.3-.31-.97.57-2.23.47-3.22-.08-.8-.55-.92-.15-1.69.23-.44.91-.56,1.07-1.1.31-1.06-.9-1.7-1.57-2.32-.8.58-1.13,1.95-1.62,2.63-.26.36-.8.54-.94,1-.23.72.51,1.19.47,1.85-.05.77-.98,1.47-1.06,2.23-.04.34.41.85.45,1.26.09,1.03-.39,2.32-.57,3.34-.3,1.73-.41,2.85-.1,4.53.07.37,0,1.26.22,1.55.58.77,2.01.11,2.13,1.33.08.83-.79,1.1-1.1,1.81-.26.61-.57,2.27-.51,2.99.02.29.5.5.55.78.07.38-.04.93,0,1.35.08.88.35,1.74.63,2.58.28.85.62,1.68.85,2.55.07.26.16,1.18.27,1.32.17.2.68.15.83.36.82,1.2,1.41,3.47,1.56,5.03.25,2.6,1.59,4.88,2.7,7.22.14.29.27.28.38.58.12.32-.03.68.12,1.06.31.83,1.17,1.64,1.68,2.36,1.23,1.74,2.37,3.23,3.06,5.17.22.62.67,1.11,1.02,1.64.45.67.58,1.47.96,2.1.37.61,1.02.86,1.57,1.49.63.72,1.05,1.67,1.59,2.45,1.29,1.86,3.05,3.3,4.43,5.08,1.06,1.36,2.16,2.2,3.47,3.22,1.22.95,1.91,2.32,3.22,3.23.63.44,1.3.76,1.95,1.13.83.47,1.78,1.07,2.65,1.71-.62.44-.8-.6,0,0Z"/>
  </g>
</svg>