<?xml version="1.0" encoding="UTF-8"?>
<svg id="_レイヤー_2" data-name="レイヤー 2" xmlns="http://www.w3.org/2000/svg" viewBox="0 0 39.3 137.46">
  <g id="Elements">
    <path d="M35.75,107.37c1.19-1.19.21-2.03.77-3.38.32-.76.78-.72.92-1.63.12-.81,0-1.74,0-2.57,0-.52.08-.88.23-1.3.07-.19.62-.43.63-.63.01-.22-.53-.45-.53-.67,0-.35.11-.29.16-.67.03-.21.35-.66.41-.92.09-.37,0-.91,0-1.29v-3.02c0-3.62,0-7.23,0-10.85v-5.68c0-.33.12-1.01,0-1.31-.1-.26-.52-.41-.62-.67-.31-.85-.22-1.85-.22-2.83,0-.85.1-1.78,0-2.62-.12-.97-.59-1.21-.84-2.15-.18-.68.21-1.59-.07-2.23-.1-.22-.46-.33-.55-.55-.18-.45-.18-.71-.22-1.26-.05-.67.17-1.53,0-2.18-.15-.54-.61-.79-.84-1.4-.15-.41-.01-.9-.16-1.31-.21-.61-.6-.89-.76-1.44-.22-.79.19-1.75,0-2.55-.17-.73-.72-1.15-.9-1.87-.09-.37.13-.88,0-1.24-.11-.29-.56-.45-.67-.74-.3-.81-.31-1.62-.67-2.42-.5-1.13-.63-2.38-1.29-3.6-.26-.48-.71-.95-.86-1.47-.16-.55.02-1.03-.19-1.58-.31-.82-1.06-1.63-1.41-2.49-.24-.58-.02-1.15-.17-1.63-.13-.42-.72-1.21-.95-1.65-.98-1.89-1.89-3.86-2.99-5.84-.55-.99-1.12-1.69-1.74-2.59-.66-.95-1.07-2.3-1.64-3.37-.65-1.22-1.33-2.21-2.2-3.28-.73-.9-1.03-1.88-1.65-2.88-.57-.92-1.27-1.69-1.8-2.66-.63-1.14-1.59-1.69-2.32-2.71-.67-.94-.96-1.85-1.81-2.68-1.03-1-2.18-1.94-2.9-3.19-.71-1.23-1.08-1.96-2.38-2.65-.82-.44-1.84-.64-2.63-1.08-.87-.5-.88-1.03-1.96-.32C-.02.97-.15,2.41.12,3.48c.34,1.34,2.42,2.8,3.46,3.84,1.28,1.28,2.55,2.55,3.83,3.83.57.57,1.31,1.13,1.78,1.78.38.53.51,1.14.89,1.7.69,1.02,1.58,1.6,2.17,2.67.72,1.31,2.35,2.22,3.14,3.57.37.63.09,1.02.29,1.7.17.58.79,1.05,1.17,1.62,1.64,2.46,3.23,4.9,4.46,7.6,1.35,2.96,3.07,5.78,4.12,8.81.72,2.07,1.74,4.1,2.41,6.16.16.48.02.97.15,1.43.13.46.51.81.67,1.25.39,1.08.54,2.29.9,3.34.39,1.15.92,1.61.93,2.9,0,.54-.2,1.59.02,2.08.11.25.54.38.64.64.18.46.18.87.18,1.43,0,.33-.11.97,0,1.28.11.29.56.46.67.76.28.76.03,1.55.23,2.36.18.72.72,1.1.89,1.82.27,1.09-.28,2.39,0,3.47.17.65.64.95.83,1.59.2.65.05,1.56.04,2.23,0,.72-.16,1.62.02,2.32.07.29.37.61.42.85.12.15.25.3.37.44l-.35.35c-.11.52-.42.82-.46,1.51-.05.81,0,1.65,0,2.46,0,1.68-.17,3.3.45,4.79.21.5.55.6.38,1.24-.06.24-.53.41-.57.65-.06.41.21.35.19.68-.01.18.26.42.25.62-.01.2-.56.45-.64.64-.3.66-.08,1.98-.08,2.7,0,1.45.38,3.43-.02,4.83-.18.61-.63.93-.78,1.54-.2.76,0,1.84,0,2.62,0,.88.07,1.72-.23,2.46-.33.83-.69.77-.69,1.83,0,1.44-.49,1.49-.82,2.69-.27.96-.3,1.53-.79,2.47-.2.38-.51.85-.68,1.22-.32.71-.25,1.53-.54,2.26-.11.28-.54.42-.65.7-.15.36.09,1.07,0,1.42-.15.6-.73,1.29-1.04,1.83-.67,1.2-1.01,2.68-1.78,3.79-.34.49-.85.8-1.18,1.3-.3.46-.38,1.04-.69,1.5-.58.87-1.18,1.68-1.75,2.57-1.14,1.76-1.39.32-1.39-1.17,0-.74.02-1.35.24-1.96.09-.25.5-.36.6-.6.17-.4,0-1.28,0-1.72,0-1.4.51-3.97,0-5.25-.1-.26-.52-.4-.62-.67-.14-.39-.13-.64-.22-1.09-.2-.97-.1-1.26-1.24-1.32-1.36-.08-1.62,1.42-2.21,2.59-.41.8-.78,1.43-.9,2.3-.1.76.07,1.56,0,2.32-.02.28.11.81,0,1.07-.12.28-.58.41-.69.69-.25.63-.23,1.23-.23,1.97s0,1.34-.22,1.96c-.09.23-.48.35-.58.58-.2.46.16,1.16,0,1.64-.15.43-1.08.99-1.08,1.43,0,.46.97.89,1.01,1.35.01.15-.5.37-.52.52-.03.22-.16.6-.2.9-.09.63-.23,2.34,0,2.95,1.7,4.49,12.69-3.91,14.93-5.01,1.25-.61,2.23-1.38,3.37-2.1.24-.15,1.01-.35,1.17-.49.4-.36.56-1.03.77-1.64,1.02.9,1.4.65,2.57-.05.66-.39,1.71-1.06,2.11-1.72.36-.6.51-2.17-.32-2.52-.47-.2-1.66.52-2.14.8-.91.53-1.31.68-2.32.92-.73.18-.98.49-1.65.84-1.3.68-3.15.68-4.26,1.79-.54.54-1.41,1.11-1.33-.25.03-.52,1.19-1.42,1.51-1.91.5-.76,1.02-1.5,1.54-2.24.59-.85.91-1.85,1.44-2.82.99-1.83,1.52-3.76,2.41-5.63.24-.5.64-1.03.8-1.57.13-.44.03-1.31.17-1.64.15-.37.72-.56.87-.93.21-.52,0-2.03,0-2.59.21-.2,0,.87,0,0Z"/>
  </g>
</svg>