<?xml version="1.0" encoding="UTF-8"?>
<svg id="_レイヤー_2" data-name="レイヤー 2" xmlns="http://www.w3.org/2000/svg" viewBox="0 0 17.03 28.65">
  <g id="Elements">
    <path d="M6.29,22.9c.03.44-.06.63.29.76.32.12.48-.09.46-.51-.01-.31-.26-.56-.31-.87-.08-.44,0-1,0-1.45V3.25c0-1.09.04-1.55.49-2.48.22-.45.24-.6.6-.71.19-.06.79-.09.97,0,.5.25.5.91.69,1.46.1.28.27.62.27.84-.09.1-.17.21-.26.31v.75c0,.35-.1.93,0,1.23.1.32.29,6.05.35,6.41.06.39-.06.6-.17.91-.18.52-.2.59-.2,1.24,0,.47-.04.99,0,1.46-.09.26-.06.47.09.62.1.13.19.26.29.39-.24.18-.36.44-.38.78,0,.15,0,.31,0,.46-.03.45,0,.92,0,1.38,0,.45,0,.91,0,1.36,0,.3,0,.6,0,.9.06.07.11.14.17.21.16.09.19.22.1.39-.05.1-.11.21-.16.31.01.38-.27.45.14.79.36-.61.89-1.03,1.29-1.61.18-.26.29-.53.43-.82.23-.46.48-.79.8-1.18.6-.73,1-1.62,1.56-2.37.3-.41.38-.37.84-.37.15,0,.47.06.59,0,.16-.08.27-.44.43-.48.27-.07.71.26.93.46.45.4.49.43.43,1.24-.07.9-.68,1.25-1.15,1.9-.22.31-.32.67-.49,1-.24.45-.57.82-.89,1.21l-1.95,2.41c-.29.36-.71.72-.94,1.15-.22.41-.19.67-.48,1.08-.26.37-.56.69-.84,1.04-.4.5-.62.56-1.07.87-.26.18-.39.59-.64.75-.31.19-.92.15-1.28.11-.49-.06-1.02-.54-1.28-1.14-.13-.28-.09-.59-.27-.85-.18-.27-.55-.34-.78-.52-.54-.41-.96-1.05-1.46-1.43-.3-.22-.59-.42-.76-.84-.05-.11.05-.32,0-.43-.1-.21-.43-.52-.55-.67-.63-.77-1.41-1.51-1.95-2.38-.36-.59-.25-.6,0-1.19.23-.53.11-.69.54-.83.12-.04.28.04.4,0,.19-.07.34-.39.52-.43.22-.05.84.5,1,.65.67.63,1.43,1.54,1.91,2.4.56,1.01.73,1.44,1.69,1.93.02.29-.33-.17,0,0Z"/>
  </g>
</svg>