<?xml version="1.0" encoding="UTF-8"?>
<svg id="_レイヤー_2" data-name="レイヤー 2" xmlns="http://www.w3.org/2000/svg" viewBox="0 0 218.98 156.56">
  <defs>
    <style>
      .cls-1 {
        fill: #4EA8D8;
      }
    </style>
  </defs>
  <g id="_施工管理募集" data-name="施工管理募集">
    <path class="cls-1" d="M102.91,100.43l8.39-19.03-20.67-2.24,5.01,8.68c-9.76,4.99-19.53,9.97-29.29,14.96l3.95,6.84c9.2-5.96,18.4-11.93,27.6-17.89l5.01,8.68Z"/>
    <path class="cls-1" d="M166.21,0c-29.14,0-52.77,23.62-52.77,52.77s23.62,52.77,52.77,52.77,52.77-23.62,52.77-52.77S195.35,0,166.21,0ZM187.46,45.78v3.88h-10.97l-4.37,7.61h15.34v3.88h-16.19v21.56h-10.43v-21.56h-15.8v-3.88h14.96l-4.3-7.61h-10.66v-3.88h8.44l-11.81-20.96h11.51l11.81,21.56c.77,1.34,1.15,2.16,1.84,3.51.69-1.42,1.07-2.16,1.92-3.58l11.43-21.49h10.59l-12.04,20.96h8.75Z"/>
    <path class="cls-1" d="M31.6,93.37c-17.45,0-31.6,14.15-31.6,31.6s14.15,31.6,31.6,31.6,31.6-14.15,31.6-31.6-14.15-31.6-31.6-31.6ZM44.23,121.19v2.32h-6.57l-2.62,4.56h9.19v2.32h-9.69v12.91h-6.25v-12.91h-9.46v-2.32h8.96l-2.57-4.56h-6.39v-2.32h5.05l-7.08-12.55h6.89l7.08,12.91c.46.8.69,1.29,1.1,2.1.41-.85.64-1.29,1.15-2.14l6.85-12.86h6.34l-7.21,12.55h5.24Z"/>
  </g>
</svg>