<?xml version="1.0" encoding="UTF-8"?>
<svg id="_レイヤー_2" data-name="レイヤー 2" xmlns="http://www.w3.org/2000/svg" viewBox="0 0 187.74 149.26">
  <defs>
    <style>
      .cls-1 {
        fill: #4EA8D8;
      }
    </style>
  </defs>
  <g id="_施工管理募集" data-name="施工管理募集">
    <g>
      <path class="cls-1" d="M107.34,36.79c-3.46,3.43-8.22,5.55-13.47,5.55s-10.02-2.12-13.47-5.55c-9.2,4.33-15.57,13.68-15.57,24.52v66.22h58.08V61.31c0-10.84-6.37-20.19-15.57-24.52Z"/>
      <path class="cls-1" d="M93.87,0c-10.56,0-19.13,8.56-19.13,19.13,0,5.31,2.16,10.11,5.65,13.57,3.46,3.43,8.22,5.55,13.47,5.55s10.02-2.12,13.47-5.55c3.49-3.47,5.65-8.27,5.65-13.57,0-10.56-8.56-19.13-19.13-19.13Z"/>
    </g>
    <path class="cls-1" d="M29.04,21.73c-10.56,0-19.13,8.56-19.13,19.13,0,5.31,2.16,10.11,5.65,13.57,3.46,3.43,8.22,5.55,13.47,5.55s10.02-2.12,13.47-5.55c3.49-3.47,5.65-8.27,5.65-13.57,0-10.56-8.56-19.13-19.13-19.13Z"/>
    <path class="cls-1" d="M42.51,58.52c-3.46,3.43-8.22,5.55-13.47,5.55s-10.02-2.12-13.47-5.55C6.37,62.85,0,72.2,0,83.04v66.22h58.08v-66.22c0-10.84-6.37-20.19-15.57-24.52ZM36.17,67.68l-5.48,8.1,3.44,25.94c.04.3-.02.6-.18.84-1.22,1.85-2.64,3.7-4.27,5.55-.35.4-.93.4-1.28,0-1.63-1.85-3.05-3.7-4.27-5.55-.16-.24-.22-.54-.18-.84,1.15-8.65,2.29-17.29,3.44-25.94l-5.48-8.1c-.62-.92.04-2.16,1.15-2.16h11.96c1.11,0,1.77,1.24,1.15,2.16Z"/>
    <path class="cls-1" d="M158.7,21.73c-10.56,0-19.13,8.56-19.13,19.13,0,5.31,2.16,10.11,5.65,13.57,3.46,3.43,8.22,5.55,13.47,5.55s10.02-2.12,13.47-5.55c3.49-3.47,5.65-8.27,5.65-13.57,0-10.56-8.56-19.13-19.13-19.13Z"/>
    <path class="cls-1" d="M172.18,58.52c-3.46,3.43-8.22,5.55-13.47,5.55s-10.02-2.12-13.47-5.55c-9.2,4.33-15.57,13.68-15.57,24.52v66.22h58.08v-66.22c0-10.84-6.37-20.19-15.57-24.52ZM165.83,67.68l-5.48,8.1,3.44,25.94c.04.3-.02.6-.18.84-1.22,1.85-2.64,3.7-4.27,5.55-.35.4-.93.4-1.28,0-1.63-1.85-3.05-3.7-4.27-5.55-.16-.24-.22-.54-.18-.84,1.15-8.65,2.29-17.29,3.44-25.94l-5.48-8.1c-.62-.92.04-2.16,1.15-2.16h11.96c1.11,0,1.77,1.24,1.15,2.16Z"/>
  </g>
</svg>