<?xml version="1.0" encoding="UTF-8"?>
<svg id="_レイヤー_2" data-name="レイヤー 2" xmlns="http://www.w3.org/2000/svg" viewBox="0 0 174.27 139.7">
  <defs>
    <style>
      .cls-1 {
        fill: #4EA8D8;
      }
    </style>
  </defs>
  <g id="_施工管理募集" data-name="施工管理募集">
    <path class="cls-1" d="M0,0v37.17h66.59V0H0ZM21.47,16.38v1.18h-3.33l-1.33,2.31h4.66v1.18h-4.92v6.55h-3.17v-6.55h-4.8v-1.18h4.54l-1.31-2.31h-3.24v-1.18h2.56l-3.59-6.37h3.5l3.59,6.55c.23.41.35.66.56,1.07.21-.43.33-.66.58-1.09l3.47-6.53h3.22l-3.66,6.37h2.66ZM59.69,24.71H26.39v-2h33.29v2ZM59.69,19.59H26.39v-2h33.29v2ZM59.69,14.47H26.39v-2h33.29v2Z"/>
    <path class="cls-1" d="M43.54,70.68c-2.63,2.61-6.25,4.22-10.25,4.22s-7.62-1.61-10.25-4.22c-6.99,3.29-11.84,10.4-11.84,18.65v50.37h44.17s0-50.37,0-50.37c0-8.24-4.84-15.35-11.84-18.65Z"/>
    <path class="cls-1" d="M33.29,42.7c-8.03,0-14.55,6.51-14.55,14.55,0,4.04,1.64,7.69,4.3,10.32,2.63,2.61,6.25,4.22,10.25,4.22s7.62-1.61,10.25-4.22c2.66-2.64,4.3-6.29,4.3-10.32,0-8.03-6.51-14.55-14.55-14.55Z"/>
    <path class="cls-1" d="M89.5,0v139.7h28.41v-27.95h27.95v27.95h28.41V0h-84.77ZM113.35,100.28h-14.31v-14.31h14.31v14.31ZM113.35,76.29h-14.31v-14.31h14.31v14.31ZM113.35,52.29h-14.31v-14.31h14.31v14.31ZM113.35,28.29h-14.31v-14.31h14.31v14.31ZM130.48,100.28h-14.31v-14.31h14.31v14.31ZM130.48,76.29h-14.31v-14.31h14.31v14.31ZM130.48,52.29h-14.31v-14.31h14.31v14.31ZM130.48,28.29h-14.31v-14.31h14.31v14.31ZM147.6,100.28h-14.31v-14.31h14.31v14.31ZM147.6,76.29h-14.31v-14.31h14.31v14.31ZM147.6,52.29h-14.31v-14.31h14.31v14.31ZM147.6,28.29h-14.31v-14.31h14.31v14.31ZM164.73,100.28h-14.31v-14.31h14.31v14.31ZM164.73,76.29h-14.31v-14.31h14.31v14.31ZM164.73,52.29h-14.31v-14.31h14.31v14.31ZM164.73,28.29h-14.31v-14.31h14.31v14.31Z"/>
  </g>
</svg>